<?xml version="1.0" encoding="utf-8"?>
<svg viewBox="0 0 500 500" xmlns="http://www.w3.org/2000/svg">
  <path fill-rule="evenodd" clip-rule="evenodd" d="M 375.315 115.454 C 375.474 121.139 374.663 126.754 374.126 132.392 C 373.559 138.337 372.954 144.272 372.24 150.203 C 370.383 165.653 366.404 180.492 360.098 194.728 C 357.012 201.696 354.188 208.778 350.048 215.227 C 345.045 223.018 338.712 229.408 330.622 234.025 C 323.6 238.031 316.346 238.485 308.717 236.053 C 299.032 232.967 291.051 227.341 284.31 219.895 C 272.976 207.378 263.633 193.454 255.586 178.642 C 249.784 167.965 244.358 157.114 240.394 145.591 C 238.072 138.837 236.368 131.961 236.271 124.771 C 236.095 111.893 241.254 101.728 251.859 94.39 C 255.456 91.902 258.472 88.711 262.134 86.282 C 269.218 81.583 276.949 78.147 284.476 74.29 C 293.036 69.904 302.009 66.818 311.316 64.568 C 318.775 62.764 326.245 62.872 333.754 64.186 C 338.764 65.062 343.836 65.747 348.57 67.674 C 361.78 73.05 370.082 82.732 373.4 96.603 C 374.88 102.788 375.449 109.092 375.315 115.454 Z" style="fill-rule: evenodd;" fill="#FFF8F2"/>
  <path fill-rule="evenodd" clip-rule="evenodd" d="M 151.935 295.9 C 159.816 295.511 167.357 297.455 175.027 298.876 C 185.606 300.835 195.846 303.873 205.685 307.979 C 220.973 314.355 231.689 325.587 237.842 341.03 C 241.249 349.58 242.995 358.477 242.517 367.686 C 241.636 384.642 237.769 400.774 228.141 415.055 C 220.872 425.839 211.39 434.199 198.986 438.505 C 184.661 443.479 171.517 440.418 159.832 431.07 C 152.971 425.581 147.553 418.655 141.948 411.949 C 135.774 404.566 129.565 397.202 124.011 389.332 C 116.225 378.297 109.446 366.722 105.511 353.687 C 103.039 345.505 101.871 337.165 104.352 328.833 C 107.966 316.683 115.669 307.983 127.488 303.12 C 129.038 302.481 130.498 301.718 131.883 300.803 C 137.26 297.25 143.152 295.6 149.592 295.894 C 150.371 295.929 151.153 295.9 151.935 295.9 Z" style="fill-rule: evenodd;" fill="#FFB5AD"/>
  <path fill-rule="evenodd" clip-rule="evenodd" d="M 126.375 202.273 C 126.338 192.903 127.144 184.591 130.325 176.718 C 132.494 171.351 135.45 166.379 139.201 161.937 C 140.564 160.324 142.157 158.89 144.023 157.883 C 151.164 154.037 158.449 150.495 166.375 148.538 C 175.728 146.227 185.065 146.641 194.441 148.635 C 201.122 150.055 207.686 151.763 213.548 155.335 C 223.227 161.232 229.808 169.479 231.227 181.008 C 232.191 188.847 230.4 196.299 226.644 203.255 C 222.887 210.212 217.945 216.277 212.339 221.785 C 203.463 230.504 193.904 238.398 183.122 244.683 C 176.689 248.431 169.699 250.613 162.234 250.896 C 148.133 251.431 137.423 244.406 131.467 230.987 C 128.597 224.519 127.432 217.679 126.765 210.711 C 126.465 207.589 126.307 204.461 126.375 202.273 Z" style="fill-rule: evenodd;" fill="#C4DBFF"/>
</svg>