<svg width="146" height="156" viewBox="0 0 146 156" fill="none" xmlns="http://www.w3.org/2000/svg">
<g id="gg:gym">
<path id="Vector" d="M122.434 63.6033L101.385 32.3285L111.126 24.845L132.168 56.1199L122.434 63.6033ZM111.336 80.0429L100.818 64.3959L52.1343 101.819L62.6525 117.453L52.9182 124.943L24.8617 83.2392L34.596 75.7558L45.1142 91.3965L93.7978 53.9731L83.2796 38.3325L93.0139 30.8491L121.07 72.5468L111.336 80.0365L111.336 80.0429ZM125.154 45.6907L134.888 38.2073L127.874 27.7845L118.14 35.2679L125.154 45.6907ZM44.547 123.477L23.4987 92.2019L13.7643 99.6853L34.8067 130.96L44.547 123.477ZM27.7926 120.537L18.0583 128.021L11.0442 117.598L20.7785 110.115L27.7926 120.537Z" fill="#EDEDED"/>
</g>
</svg>
