<svg width="455" height="449" viewBox="0 0 455 449" fill="none" xmlns="http://www.w3.org/2000/svg">
<g style="mix-blend-mode:luminosity" opacity="0.5">
<g filter="url(#filter0_f_1_498)">
<ellipse cx="205.677" cy="108.974" rx="3.30928" ry="3.30928" transform="rotate(45 205.677 108.974)" fill="#fff"/>
<ellipse cx="3.30928" cy="3.30928" rx="3.30928" ry="3.30928" transform="matrix(-0.707107 -0.707107 -0.707107 0.707107 319.401 195.554)" fill="#fff"/>
<ellipse cx="229.545" cy="105.698" rx="3.30927" ry="3.30928" transform="rotate(45 229.545 105.698)" fill="#fff"/>
<ellipse cx="3.30928" cy="3.30928" rx="3.30928" ry="3.30928" transform="matrix(-0.707107 -0.707107 -0.707107 0.707107 343.737 197.426)" fill="#fff"/>
<ellipse cx="234.693" cy="79.9577" rx="3.30928" ry="3.30928" transform="rotate(45 234.693 79.9577)" fill="#fff"/>
<ellipse cx="3.30928" cy="3.30928" rx="3.30928" ry="3.30928" transform="matrix(-0.707107 -0.707107 -0.707107 0.707107 337.186 177.77)" fill="#fff"/>
<ellipse cx="254.35" cy="90.2538" rx="3.30928" ry="3.30928" transform="rotate(45 254.35 90.2538)" fill="#fff"/>
<ellipse cx="3.30927" cy="3.30928" rx="3.30927" ry="3.30928" transform="matrix(0.707107 0.707107 0.707107 -0.707107 209.889 137.522)" fill="#fff"/>
<ellipse cx="3.30928" cy="3.30928" rx="3.30928" ry="3.30928" transform="matrix(-0.707107 -0.707107 -0.707107 0.707107 360.586 165.602)" fill="#fff"/>
<ellipse cx="299.277" cy="231.591" rx="3.30928" ry="3.30928" transform="rotate(-135 299.277 231.591)" fill="#fff"/>
<ellipse cx="268.857" cy="66.3857" rx="3.30928" ry="3.30928" transform="rotate(45 268.857 66.3857)" fill="#fff"/>
<ellipse cx="3.30928" cy="3.30928" rx="3.30928" ry="3.30928" transform="matrix(0.707107 0.707107 0.707107 -0.707107 183.681 154.37)" fill="#fff"/>
<ellipse cx="3.30928" cy="3.30928" rx="3.30928" ry="3.30928" transform="matrix(-0.707107 -0.707107 -0.707107 0.707107 343.737 144.074)" fill="#fff"/>
<ellipse cx="281.493" cy="213.806" rx="3.30928" ry="3.30928" transform="rotate(-135 281.493 213.806)" fill="#fff"/>
<ellipse cx="282.43" cy="87.4458" rx="3.30928" ry="3.30928" transform="rotate(45 282.43 87.4458)" fill="#fff"/>
<circle cx="3.30928" cy="3.30928" r="3.30928" transform="matrix(0.707107 0.707107 0.707107 -0.707107 213.165 169.814)" fill="#fff"/>
<circle cx="3.30928" cy="3.30928" r="3.30928" transform="matrix(-0.707107 -0.707107 -0.707107 0.707107 360.118 130.502)" fill="#fff"/>
<ellipse cx="261.837" cy="239.079" rx="3.30928" ry="3.30928" transform="rotate(-135 261.837 239.079)" fill="#fff"/>
<ellipse cx="302.086" cy="72.4697" rx="3.30928" ry="3.30928" transform="rotate(45 302.086 72.4697)" fill="#fff"/>
<ellipse cx="3.30928" cy="3.30927" rx="3.30928" ry="3.30927" transform="matrix(0.707107 0.707107 0.707107 -0.707107 196.785 188.066)" fill="#fff"/>
<ellipse cx="3.30928" cy="3.30928" rx="3.30928" ry="3.30928" transform="matrix(-0.707107 -0.707107 -0.707107 0.707107 334.378 115.994)" fill="#fff"/>
<ellipse cx="253.413" cy="207.254" rx="3.30928" ry="3.30928" transform="rotate(-135 253.413 207.254)" fill="#fff"/>
<ellipse cx="309.105" cy="95.4018" rx="3.30928" ry="3.30928" transform="rotate(45 309.105 95.4018)" fill="#fff"/>
<circle cx="3.30928" cy="3.30928" r="3.30928" transform="matrix(0.707107 0.707107 0.707107 -0.707107 224.865 190.874)" fill="#fff"/>
<ellipse cx="328.294" cy="98.6778" rx="3.30928" ry="3.30928" transform="rotate(45 328.294 98.6778)" fill="#fff"/>
<ellipse cx="3.30928" cy="3.30928" rx="3.30928" ry="3.30928" transform="matrix(0.707107 0.707107 0.707107 -0.707107 222.993 216.146)" fill="#fff"/>
<ellipse cx="2.39617" cy="2.38564" rx="2.39617" ry="2.38564" transform="matrix(-0.262494 0.964934 -0.966908 -0.255124 280.273 126.695)" fill="#fff"/>
<ellipse cx="2.39617" cy="2.38564" rx="2.39617" ry="2.38564" transform="matrix(0.262494 -0.964934 -0.966908 -0.255124 266.059 178.949)" fill="#fff"/>
<ellipse cx="2.39617" cy="2.38564" rx="2.39617" ry="2.38564" transform="matrix(-0.262494 0.964934 -0.966908 -0.255124 285.642 127.863)" fill="#fff"/>
<ellipse cx="2.39617" cy="2.38564" rx="2.39617" ry="2.38564" transform="matrix(0.262494 -0.964934 -0.966908 -0.255124 271.301 180.58)" fill="#fff"/>
<ellipse cx="2.39617" cy="2.38564" rx="2.39617" ry="2.38564" transform="matrix(-0.262494 0.964934 -0.966908 -0.255124 290.926 130.249)" fill="#fff"/>
<ellipse cx="2.39617" cy="2.38564" rx="2.39617" ry="2.38564" transform="matrix(0.262494 -0.964934 -0.966908 -0.255124 277.088 181.116)" fill="#fff"/>
<ellipse cx="2.39617" cy="2.38564" rx="2.39617" ry="2.38564" transform="matrix(-0.262494 0.964934 -0.966908 -0.255124 295.665 133.73)" fill="#fff"/>
<ellipse cx="2.39617" cy="2.38564" rx="2.39617" ry="2.38564" transform="matrix(-0.262494 0.964934 0.966908 0.255124 269.097 125.976)" fill="#fff"/>
<ellipse cx="2.39617" cy="2.38564" rx="2.39617" ry="2.38564" transform="matrix(0.262494 -0.964934 -0.966908 -0.255124 282.96 180.435)" fill="#fff"/>
<ellipse cx="2.39617" cy="2.38564" rx="2.39617" ry="2.38564" transform="matrix(0.262494 -0.964934 0.966908 0.255124 255.888 174.531)" fill="#fff"/>
<ellipse cx="2.39617" cy="2.38564" rx="2.39617" ry="2.38564" transform="matrix(-0.262494 0.964934 -0.966908 -0.255124 299.335 138.415)" fill="#fff"/>
<ellipse cx="2.39617" cy="2.38564" rx="2.39617" ry="2.38564" transform="matrix(-0.262494 0.964934 0.966908 0.255124 262.784 128.275)" fill="#fff"/>
<ellipse cx="2.39617" cy="2.38564" rx="2.39617" ry="2.38564" transform="matrix(0.262494 -0.964934 -0.966908 -0.255124 288.517 178.184)" fill="#fff"/>
<ellipse cx="2.39617" cy="2.38564" rx="2.39617" ry="2.38564" transform="matrix(0.262494 -0.964934 0.966908 0.255124 251.525 169.663)" fill="#fff"/>
<ellipse cx="2.39617" cy="2.38564" rx="2.39617" ry="2.38564" transform="matrix(-0.262494 0.964934 -0.966908 -0.255124 301.6 143.721)" fill="#fff"/>
<ellipse cx="2.39617" cy="2.38564" rx="2.39617" ry="2.38564" transform="matrix(-0.262494 0.964934 0.966908 0.255124 257.312 132.035)" fill="#fff"/>
<ellipse cx="2.39617" cy="2.38564" rx="2.39617" ry="2.38564" transform="matrix(0.262494 -0.964934 -0.966908 -0.255124 293.172 174.704)" fill="#fff"/>
<ellipse cx="2.39617" cy="2.38564" rx="2.39617" ry="2.38564" transform="matrix(0.262494 -0.964934 0.966908 0.255124 248.758 163.481)" fill="#fff"/>
<ellipse cx="2.39617" cy="2.38564" rx="2.39617" ry="2.38564" transform="matrix(-0.262494 0.964934 -0.966908 -0.255124 303.11 149.076)" fill="#fff"/>
<ellipse cx="2.39617" cy="2.38564" rx="2.39617" ry="2.38564" transform="matrix(-0.262494 0.964934 0.966908 0.255124 253.285 135.929)" fill="#fff"/>
<ellipse cx="2.39617" cy="2.38564" rx="2.39617" ry="2.38564" transform="matrix(0.262494 -0.964934 -0.966908 -0.255124 297.197 170.81)" fill="#fff"/>
<ellipse cx="2.39617" cy="2.38564" rx="2.39617" ry="2.38564" transform="matrix(0.262494 -0.964934 0.966908 0.255124 247.373 157.663)" fill="#fff"/>
<ellipse cx="2.39617" cy="2.38564" rx="2.39617" ry="2.38564" transform="matrix(-0.262494 0.964934 -0.966908 -0.255124 302.816 154.698)" fill="#fff"/>
<ellipse cx="2.39617" cy="2.38564" rx="2.39617" ry="2.38564" transform="matrix(-0.262494 0.964934 0.966908 0.255124 250.686 140.943)" fill="#fff"/>
<ellipse cx="2.39617" cy="2.38564" rx="2.39617" ry="2.38564" transform="matrix(-0.262494 0.964934 -0.966908 -0.255124 301.308 160.247)" fill="#fff"/>
<ellipse cx="2.39617" cy="2.38564" rx="2.39617" ry="2.38564" transform="matrix(-0.262494 0.964934 0.966908 0.255124 249.176 146.492)" fill="#fff"/>
</g>
<g filter="url(#filter1_f_1_498)">
<circle cx="399.384" cy="242.492" r="3.42539" transform="rotate(180 399.384 242.492)" fill="#fff"/>
<ellipse cx="3.42539" cy="3.42539" rx="3.42539" ry="3.42539" transform="matrix(1 -1.88652e-07 1.8466e-07 -1 325.396 245.917)" fill="#fff"/>
<ellipse cx="399.727" cy="250.37" rx="3.42539" ry="3.42539" transform="rotate(180 399.727 250.37)" fill="#fff"/>
<ellipse cx="3.42539" cy="3.42539" rx="3.42539" ry="3.42539" transform="matrix(1 1.8466e-07 -1.88652e-07 -1 325.053 253.796)" fill="#fff"/>
<ellipse cx="398.357" cy="258.591" rx="3.42539" ry="3.42539" transform="rotate(180 398.357 258.591)" fill="#fff"/>
<ellipse cx="3.42539" cy="3.42539" rx="3.42539" ry="3.42539" transform="matrix(1 -1.88652e-07 1.8466e-07 -1 326.424 262.017)" fill="#fff"/>
<circle cx="395.274" cy="266.47" r="3.42539" transform="rotate(180 395.274 266.47)" fill="#fff"/>
<ellipse cx="3.42539" cy="3.42539" rx="3.42539" ry="3.42539" transform="matrix(-1 5.56119e-08 -5.16191e-08 1 399.727 230.16)" fill="#fff"/>
<ellipse cx="3.42539" cy="3.42539" rx="3.42539" ry="3.42539" transform="matrix(1 -1.88652e-07 1.8466e-07 -1 329.506 269.895)" fill="#fff"/>
<ellipse cx="331.219" cy="233.586" rx="3.42539" ry="3.42539" fill="#fff"/>
<circle cx="390.136" cy="273.32" r="3.42539" transform="rotate(180 390.136 273.32)" fill="#fff"/>
<circle cx="3.42539" cy="3.42539" r="3.42539" transform="matrix(-1 0 0 1 394.246 222.282)" fill="#fff"/>
<ellipse cx="3.42539" cy="3.42539" rx="3.42539" ry="3.42539" transform="matrix(1 1.8466e-07 -1.88652e-07 -1 334.645 276.746)" fill="#fff"/>
<ellipse cx="336.357" cy="225.707" rx="3.42539" ry="3.42539" fill="#fff"/>
<circle cx="383.627" cy="278.458" r="3.42539" transform="rotate(180 383.627 278.458)" fill="#fff"/>
<circle cx="3.42539" cy="3.42539" r="3.42539" transform="matrix(-1 0 0 1 387.053 216.116)" fill="#fff"/>
<ellipse cx="3.42539" cy="3.42539" rx="3.42539" ry="3.42539" transform="matrix(1 1.8466e-07 -1.88652e-07 -1 341.152 281.884)" fill="#fff"/>
<ellipse cx="343.893" cy="219.542" rx="3.42539" ry="3.42539" fill="#fff"/>
<circle cx="376.777" cy="282.569" r="3.42539" transform="rotate(180 376.777 282.569)" fill="#fff"/>
<circle cx="3.42539" cy="3.42539" r="3.42539" transform="matrix(-1 0 0 1 380.202 212.006)" fill="#fff"/>
<ellipse cx="3.42539" cy="3.42539" rx="3.42539" ry="3.42539" transform="matrix(1 -1.88652e-07 1.8466e-07 -1 348.003 285.994)" fill="#fff"/>
<circle cx="351.428" cy="215.431" r="3.42539" fill="#fff"/>
<ellipse cx="368.898" cy="284.282" rx="3.42539" ry="3.42539" transform="rotate(180 368.898 284.282)" fill="#fff"/>
<circle cx="3.42539" cy="3.42539" r="3.42539" transform="matrix(-1 0 0 1 372.323 210.293)" fill="#fff"/>
<ellipse cx="360.677" cy="284.282" rx="3.42539" ry="3.42539" transform="rotate(180 360.677 284.282)" fill="#fff"/>
<circle cx="3.42539" cy="3.42539" r="3.42539" transform="matrix(-1 0 0 1 364.103 210.293)" fill="#fff"/>
<ellipse cx="0.621057" cy="0.616336" rx="0.621057" ry="0.616336" transform="matrix(0.864926 -0.501899 0.498084 0.867129 351.829 259.242)" fill="#fff"/>
<ellipse cx="0.621057" cy="0.616337" rx="0.621057" ry="0.616337" transform="matrix(-0.864926 0.501899 0.498084 0.867129 373.884 243.024)" fill="#fff"/>
<ellipse cx="0.621057" cy="0.616337" rx="0.621057" ry="0.616337" transform="matrix(0.864926 -0.501899 0.498084 0.867129 352.412 254.77)" fill="#fff"/>
<ellipse cx="0.621057" cy="0.616337" rx="0.621057" ry="0.616337" transform="matrix(-0.864926 0.501899 0.498084 0.867129 375.418 238.713)" fill="#fff"/>
<ellipse cx="0.621057" cy="0.616337" rx="0.621057" ry="0.616337" transform="matrix(0.864926 -0.501899 0.498084 0.867129 348.022 252.615)" fill="#fff"/>
<ellipse cx="0.621057" cy="0.616337" rx="0.621057" ry="0.616337" transform="matrix(-0.864926 0.501899 0.498084 0.867129 371.551 238.962)" fill="#fff"/>
<ellipse cx="0.621057" cy="0.616337" rx="0.621057" ry="0.616337" transform="matrix(0.864926 -0.501899 0.498084 0.867129 350.847 249.551)" fill="#fff"/>
<ellipse cx="0.621057" cy="0.616337" rx="0.621057" ry="0.616337" transform="matrix(0.864926 -0.501899 -0.498084 -0.867129 358.03 260.062)" fill="#fff"/>
<ellipse cx="0.621057" cy="0.616336" rx="0.621057" ry="0.616336" transform="matrix(-0.864926 0.501899 0.498084 0.867129 370.507 234.152)" fill="#fff"/>
<ellipse cx="0.621057" cy="0.616337" rx="0.621057" ry="0.616337" transform="matrix(-0.864926 0.501899 -0.498084 -0.867129 380.238 248.6)" fill="#fff"/>
<ellipse cx="0.621057" cy="0.616336" rx="0.621057" ry="0.616336" transform="matrix(0.864926 -0.501899 0.498084 0.867129 347.255 245.792)" fill="#fff"/>
<ellipse cx="0.621058" cy="0.616337" rx="0.621058" ry="0.616337" transform="matrix(0.864926 -0.501899 -0.498084 -0.867129 359.779 265.602)" fill="#fff"/>
<ellipse cx="0.621057" cy="0.616336" rx="0.621057" ry="0.616336" transform="matrix(-0.864926 0.501899 0.498084 0.867129 365.795 236.173)" fill="#fff"/>
<ellipse cx="0.621057" cy="0.616337" rx="0.621057" ry="0.616337" transform="matrix(-0.864926 0.501899 -0.498084 -0.867129 376.155 250.969)" fill="#fff"/>
<ellipse cx="0.621057" cy="0.616336" rx="0.621057" ry="0.616336" transform="matrix(0.864926 -0.501899 0.498084 0.867129 351.721 244.34)" fill="#fff"/>
<ellipse cx="0.621057" cy="0.616337" rx="0.621057" ry="0.616337" transform="matrix(0.864926 -0.501899 -0.498084 -0.867129 364.016 261.006)" fill="#fff"/>
<ellipse cx="0.621057" cy="0.616336" rx="0.621057" ry="0.616336" transform="matrix(-0.864926 0.501899 0.498084 0.867129 364.152 232.566)" fill="#fff"/>
<ellipse cx="0.621057" cy="0.616337" rx="0.621057" ry="0.616337" transform="matrix(-0.864926 0.501899 -0.498084 -0.867129 379.747 255.725)" fill="#fff"/>
<ellipse cx="0.621058" cy="0.616337" rx="0.621058" ry="0.616337" transform="matrix(0.864926 -0.501899 0.498084 0.867129 349.986 240.074)" fill="#fff"/>
<ellipse cx="0.621057" cy="0.616337" rx="0.621057" ry="0.616337" transform="matrix(0.864926 -0.501899 -0.498084 -0.867129 366.502 264.836)" fill="#fff"/>
<ellipse cx="0.621057" cy="0.616336" rx="0.621057" ry="0.616336" transform="matrix(-0.864926 0.501899 0.498084 0.867129 360.27 236.529)" fill="#fff"/>
<ellipse cx="0.621057" cy="0.616336" rx="0.621057" ry="0.616336" transform="matrix(-0.864926 0.501899 -0.498084 -0.867129 373.593 255.734)" fill="#fff"/>
<ellipse cx="0.621057" cy="0.616337" rx="0.621057" ry="0.616337" transform="matrix(0.864926 -0.501899 0.498084 0.867129 354.468 239.896)" fill="#fff"/>
<ellipse cx="0.621058" cy="0.616337" rx="0.621058" ry="0.616337" transform="matrix(0.864926 -0.501899 -0.498084 -0.867129 368.39 259.893)" fill="#fff"/>
<ellipse cx="0.621057" cy="0.616336" rx="0.621057" ry="0.616336" transform="matrix(0.864926 -0.501899 0.498084 0.867129 356.003 236.583)" fill="#fff"/>
<ellipse cx="0.621057" cy="0.616337" rx="0.621057" ry="0.616337" transform="matrix(0.864926 -0.501899 -0.498084 -0.867129 372.856 261.434)" fill="#fff"/>
</g>
<g filter="url(#filter2_f_1_498)">
<ellipse cx="286.56" cy="266.135" rx="3.30928" ry="3.30928" transform="rotate(120 286.56 266.135)" fill="#fff"/>
<ellipse cx="3.30927" cy="3.30928" rx="3.30927" ry="3.30928" transform="matrix(0.5 -0.866025 -0.866025 -0.5 232.365 398.393)" fill="#fff"/>
<ellipse cx="295.903" cy="288.342" rx="3.30928" ry="3.30928" transform="rotate(120 295.903 288.342)" fill="#fff"/>
<circle cx="3.30928" cy="3.30928" r="3.30928" transform="matrix(0.5 -0.866025 -0.866025 -0.5 236.855 422.385)" fill="#fff"/>
<ellipse cx="322.099" cy="286.652" rx="3.30928" ry="3.30928" transform="rotate(120 322.099 286.652)" fill="#fff"/>
<ellipse cx="3.30927" cy="3.30928" rx="3.30927" ry="3.30928" transform="matrix(0.5 -0.866025 -0.866025 -0.5 254.146 410.968)" fill="#fff"/>
<ellipse cx="317.24" cy="308.304" rx="3.30928" ry="3.30928" transform="rotate(120 317.24 308.304)" fill="#fff"/>
<ellipse cx="3.30928" cy="3.30928" rx="3.30928" ry="3.30928" transform="matrix(-0.5 0.866025 0.866025 0.5 260.076 277.592)" fill="#fff"/>
<ellipse cx="3.30928" cy="3.30928" rx="3.30928" ry="3.30928" transform="matrix(0.5 -0.866025 -0.866025 -0.5 271.956 430.422)" fill="#fff"/>
<ellipse cx="192.348" cy="388.282" rx="3.30927" ry="3.30928" transform="rotate(-60 192.348 388.282)" fill="#fff"/>
<circle cx="344.051" cy="316.14" r="3.30928" transform="rotate(120 344.051 316.14)" fill="#fff"/>
<ellipse cx="3.30928" cy="3.30928" rx="3.30928" ry="3.30928" transform="matrix(-0.5 0.866025 0.866025 0.5 237.019 256.638)" fill="#fff"/>
<ellipse cx="3.30928" cy="3.30928" rx="3.30928" ry="3.30928" transform="matrix(0.5 -0.866025 -0.866025 -0.5 288.39 408.576)" fill="#fff"/>
<circle cx="204.923" cy="366.501" r="3.30928" transform="rotate(-60 204.923 366.501)" fill="#fff"/>
<ellipse cx="327.221" cy="334.7" rx="3.30928" ry="3.30928" transform="rotate(120 327.221 334.7)" fill="#fff"/>
<ellipse cx="3.30928" cy="3.30928" rx="3.30928" ry="3.30928" transform="matrix(-0.5 0.866025 0.866025 0.5 229.731 289.114)" fill="#fff"/>
<ellipse cx="3.30928" cy="3.30928" rx="3.30928" ry="3.30928" transform="matrix(0.5 -0.866025 -0.866025 -0.5 305.738 420.885)" fill="#fff"/>
<circle cx="175.425" cy="354.055" r="3.30928" transform="rotate(-60 175.425 354.055)" fill="#fff"/>
<ellipse cx="346.773" cy="349.81" rx="3.30928" ry="3.30928" transform="rotate(120 346.773 349.81)" fill="#fff"/>
<ellipse cx="3.30928" cy="3.30928" rx="3.30928" ry="3.30928" transform="matrix(-0.5 0.866025 0.866025 0.5 207.862 278.016)" fill="#fff"/>
<ellipse cx="3.30928" cy="3.30928" rx="3.30928" ry="3.30928" transform="matrix(0.5 -0.866025 -0.866025 -0.5 313.091 392.267)" fill="#fff"/>
<ellipse cx="203.984" cy="337.681" rx="3.30928" ry="3.30928" transform="rotate(-60 203.984 337.681)" fill="#fff"/>
<ellipse cx="326.439" cy="362.527" rx="3.30928" ry="3.30928" transform="rotate(120 326.439 362.527)" fill="#fff"/>
<ellipse cx="3.30928" cy="3.30928" rx="3.30928" ry="3.30928" transform="matrix(-0.5 0.866025 0.866025 0.5 212.417 305.867)" fill="#fff"/>
<ellipse cx="328.242" cy="381.909" rx="3.30928" ry="3.30928" transform="rotate(120 328.242 381.909)" fill="#fff"/>
<ellipse cx="3.30928" cy="3.30927" rx="3.30928" ry="3.30927" transform="matrix(-0.5 0.866025 0.866025 0.5 187.521 310.599)" fill="#fff"/>
<ellipse cx="1.20001" cy="1.19089" rx="1.20001" ry="1.19089" transform="matrix(0.864926 -0.501899 0.498084 0.867129 240.419 363.156)" fill="#fff"/>
<ellipse cx="1.20001" cy="1.19089" rx="1.20001" ry="1.19089" transform="matrix(-0.864926 0.501899 0.498084 0.867129 283.033 331.82)" fill="#fff"/>
<ellipse cx="1.20001" cy="1.19089" rx="1.20001" ry="1.19089" transform="matrix(0.864926 -0.501899 0.498084 0.867129 241.546 354.517)" fill="#fff"/>
<ellipse cx="1.20001" cy="1.19089" rx="1.20001" ry="1.19089" transform="matrix(-0.864926 0.501899 0.498084 0.867129 285.998 323.49)" fill="#fff"/>
<ellipse cx="1.20001" cy="1.19089" rx="1.20001" ry="1.19089" transform="matrix(0.864926 -0.501899 0.498084 0.867129 233.063 350.351)" fill="#fff"/>
<ellipse cx="1.20001" cy="1.19089" rx="1.20001" ry="1.19089" transform="matrix(-0.864926 0.501899 0.498084 0.867129 278.524 323.971)" fill="#fff"/>
<ellipse cx="1.20001" cy="1.19089" rx="1.20001" ry="1.19089" transform="matrix(0.864926 -0.501899 0.498084 0.867129 238.521 344.432)" fill="#fff"/>
<ellipse cx="1.20001" cy="1.19089" rx="1.20001" ry="1.19089" transform="matrix(0.864926 -0.501899 -0.498084 -0.867129 252.4 364.741)" fill="#fff"/>
<ellipse cx="1.20001" cy="1.19089" rx="1.20001" ry="1.19089" transform="matrix(-0.864926 0.501899 0.498084 0.867129 276.508 314.678)" fill="#fff"/>
<ellipse cx="1.20001" cy="1.19089" rx="1.20001" ry="1.19089" transform="matrix(-0.864926 0.501899 -0.498084 -0.867129 295.311 342.594)" fill="#fff"/>
<ellipse cx="1.20001" cy="1.19089" rx="1.20001" ry="1.19089" transform="matrix(0.864926 -0.501899 0.498084 0.867129 231.58 337.168)" fill="#fff"/>
<ellipse cx="1.20001" cy="1.19089" rx="1.20001" ry="1.19089" transform="matrix(0.864926 -0.501899 -0.498084 -0.867129 255.781 375.445)" fill="#fff"/>
<ellipse cx="1.20001" cy="1.19089" rx="1.20001" ry="1.19089" transform="matrix(-0.864926 0.501899 0.498084 0.867129 267.403 318.584)" fill="#fff"/>
<ellipse cx="1.20001" cy="1.19089" rx="1.20001" ry="1.19089" transform="matrix(-0.864926 0.501899 -0.498084 -0.867129 287.423 347.171)" fill="#fff"/>
<ellipse cx="1.20001" cy="1.19089" rx="1.20001" ry="1.19089" transform="matrix(0.864926 -0.501899 0.498084 0.867129 240.21 334.364)" fill="#fff"/>
<ellipse cx="1.20001" cy="1.19089" rx="1.20001" ry="1.19089" transform="matrix(0.864926 -0.501899 -0.498084 -0.867129 263.966 366.566)" fill="#fff"/>
<ellipse cx="1.20001" cy="1.19089" rx="1.20001" ry="1.19089" transform="matrix(-0.864926 0.501899 0.498084 0.867129 264.23 311.613)" fill="#fff"/>
<ellipse cx="1.20001" cy="1.19089" rx="1.20001" ry="1.19089" transform="matrix(-0.864926 0.501899 -0.498084 -0.867129 294.362 356.362)" fill="#fff"/>
<ellipse cx="1.20001" cy="1.19089" rx="1.20001" ry="1.19089" transform="matrix(0.864926 -0.501899 0.498084 0.867129 236.858 326.12)" fill="#fff"/>
<ellipse cx="1.20001" cy="1.19089" rx="1.20001" ry="1.19089" transform="matrix(0.864926 -0.501899 -0.498084 -0.867129 268.771 373.966)" fill="#fff"/>
<ellipse cx="1.20001" cy="1.19089" rx="1.20001" ry="1.19089" transform="matrix(-0.864926 0.501899 0.498084 0.867129 256.728 319.271)" fill="#fff"/>
<ellipse cx="1.20001" cy="1.19089" rx="1.20001" ry="1.19089" transform="matrix(-0.864926 0.501899 -0.498084 -0.867129 282.471 356.378)" fill="#fff"/>
<ellipse cx="1.20001" cy="1.19089" rx="1.20001" ry="1.19089" transform="matrix(0.864926 -0.501899 0.498084 0.867129 245.519 325.776)" fill="#fff"/>
<ellipse cx="1.20001" cy="1.19089" rx="1.20001" ry="1.19089" transform="matrix(0.864926 -0.501899 -0.498084 -0.867129 272.418 364.415)" fill="#fff"/>
<ellipse cx="1.20001" cy="1.19089" rx="1.20001" ry="1.19089" transform="matrix(0.864926 -0.501899 0.498084 0.867129 248.483 319.374)" fill="#fff"/>
<ellipse cx="1.20001" cy="1.19089" rx="1.20001" ry="1.19089" transform="matrix(0.864926 -0.501899 -0.498084 -0.867129 281.048 367.393)" fill="#fff"/>
<ellipse cx="1.20001" cy="1.19089" rx="1.20001" ry="1.19089" transform="matrix(0.864926 -0.501899 0.498084 0.867129 115.836 223.401)" fill="#fff"/>
<ellipse cx="1.20001" cy="1.19089" rx="1.20001" ry="1.19089" transform="matrix(-0.864926 0.501899 0.498084 0.867129 118.039 222.208)" fill="#fff"/>
<ellipse cx="1.20001" cy="1.19089" rx="1.20001" ry="1.19089" transform="matrix(0.864926 -0.501899 0.498084 0.867129 115.836 223.401)" fill="#fff"/>
<ellipse cx="1.20001" cy="1.19089" rx="1.20001" ry="1.19089" transform="matrix(-0.864926 0.501899 0.498084 0.867129 118.039 222.208)" fill="#fff"/>
<ellipse cx="1.20001" cy="1.19089" rx="1.20001" ry="1.19089" transform="matrix(0.864926 -0.501899 0.498084 0.867129 115.836 223.401)" fill="#fff"/>
<ellipse cx="1.20001" cy="1.19089" rx="1.20001" ry="1.19089" transform="matrix(-0.864926 0.501899 0.498084 0.867129 118.039 222.208)" fill="#fff"/>
<ellipse cx="1.20001" cy="1.19089" rx="1.20001" ry="1.19089" transform="matrix(0.864926 -0.501899 0.498084 0.867129 115.836 223.401)" fill="#fff"/>
<ellipse cx="1.20001" cy="1.19089" rx="1.20001" ry="1.19089" transform="matrix(0.864926 -0.501899 -0.498084 -0.867129 117.137 225.466)" fill="#fff"/>
<ellipse cx="1.20001" cy="1.19089" rx="1.20001" ry="1.19089" transform="matrix(-0.864926 0.501899 0.498084 0.867129 118.039 222.208)" fill="#fff"/>
<ellipse cx="1.20001" cy="1.19089" rx="1.20001" ry="1.19089" transform="matrix(-0.864926 0.501899 -0.498084 -0.867129 119.086 224.274)" fill="#fff"/>
<ellipse cx="1.20001" cy="1.19089" rx="1.20001" ry="1.19089" transform="matrix(0.864926 -0.501899 0.498084 0.867129 115.836 223.401)" fill="#fff"/>
<circle cx="5" cy="5" r="5" transform="matrix(0.866025 -0.5 -0.5 -0.866025 115.936 230.785)" fill="#fff"/>
<ellipse cx="1.20001" cy="1.19089" rx="1.20001" ry="1.19089" transform="matrix(-0.864926 0.501899 0.498084 0.867129 118.039 222.208)" fill="#fff"/>
<ellipse cx="1.20001" cy="1.19089" rx="1.20001" ry="1.19089" transform="matrix(-0.864926 0.501899 -0.498084 -0.867129 119.086 224.274)" fill="#fff"/>
<ellipse cx="1.20001" cy="1.19089" rx="1.20001" ry="1.19089" transform="matrix(0.864926 -0.501899 0.498084 0.867129 115.836 223.401)" fill="#fff"/>
<ellipse cx="1.20001" cy="1.19089" rx="1.20001" ry="1.19089" transform="matrix(0.864926 -0.501899 -0.498084 -0.867129 117.137 225.466)" fill="#fff"/>
<ellipse cx="1.20001" cy="1.19089" rx="1.20001" ry="1.19089" transform="matrix(-0.864926 0.501899 0.498084 0.867129 118.039 222.208)" fill="#fff"/>
<ellipse cx="1.20001" cy="1.19089" rx="1.20001" ry="1.19089" transform="matrix(-0.864926 0.501899 -0.498084 -0.867129 119.044 224.232)" fill="#fff"/>
<ellipse cx="1.20001" cy="1.19089" rx="1.20001" ry="1.19089" transform="matrix(0.864926 -0.501899 0.498084 0.867129 115.836 223.401)" fill="#fff"/>
<ellipse cx="1.20001" cy="1.19089" rx="1.20001" ry="1.19089" transform="matrix(0.864926 -0.501899 -0.498084 -0.867129 117.137 225.466)" fill="#fff"/>
<ellipse cx="1.20001" cy="1.19089" rx="1.20001" ry="1.19089" transform="matrix(-0.864926 0.501899 0.498084 0.867129 118.039 222.208)" fill="#fff"/>
<ellipse cx="1.20001" cy="1.19089" rx="1.20001" ry="1.19089" transform="matrix(-0.864926 0.501899 -0.498084 -0.867129 119.086 224.274)" fill="#fff"/>
<ellipse cx="1.20001" cy="1.19089" rx="1.20001" ry="1.19089" transform="matrix(0.864926 -0.501899 0.498084 0.867129 115.836 223.401)" fill="#fff"/>
<ellipse cx="1.20001" cy="1.19089" rx="1.20001" ry="1.19089" transform="matrix(0.864926 -0.501899 -0.498084 -0.867129 117.137 225.466)" fill="#fff"/>
<ellipse cx="1.20001" cy="1.19089" rx="1.20001" ry="1.19089" transform="matrix(0.864926 -0.501899 0.498084 0.867129 115.836 223.401)" fill="#808755"/>
<ellipse cx="1.20001" cy="1.19089" rx="1.20001" ry="1.19089" transform="matrix(0.864926 -0.501899 -0.498084 -0.867129 117.137 225.466)" fill="#fff"/>
</g>
<g filter="url(#filter3_f_1_498)">
<ellipse cx="140.476" cy="145.874" rx="3.30928" ry="3.30928" transform="rotate(120 140.476 145.874)" fill="#fff"/>
<ellipse cx="3.30927" cy="3.30928" rx="3.30927" ry="3.30928" transform="matrix(0.5 -0.866025 -0.866025 -0.5 86.2803 278.132)" fill="#fff"/>
<ellipse cx="149.818" cy="168.081" rx="3.30928" ry="3.30928" transform="rotate(120 149.818 168.081)" fill="#fff"/>
<circle cx="3.30928" cy="3.30928" r="3.30928" transform="matrix(0.5 -0.866025 -0.866025 -0.5 90.7705 302.124)" fill="#fff"/>
<ellipse cx="176.014" cy="166.391" rx="3.30928" ry="3.30928" transform="rotate(120 176.014 166.391)" fill="#fff"/>
<ellipse cx="3.30927" cy="3.30928" rx="3.30927" ry="3.30928" transform="matrix(0.5 -0.866025 -0.866025 -0.5 108.061 290.707)" fill="#fff"/>
<ellipse cx="171.155" cy="188.043" rx="3.30928" ry="3.30928" transform="rotate(120 171.155 188.043)" fill="#fff"/>
<ellipse cx="3.30928" cy="3.30928" rx="3.30928" ry="3.30928" transform="matrix(-0.5 0.866025 0.866025 0.5 113.991 157.331)" fill="#fff"/>
<ellipse cx="3.30928" cy="3.30928" rx="3.30928" ry="3.30928" transform="matrix(0.5 -0.866025 -0.866025 -0.5 125.871 310.161)" fill="#fff"/>
<ellipse cx="46.2627" cy="268.021" rx="3.30927" ry="3.30928" transform="rotate(-60 46.2627 268.021)" fill="#fff"/>
<circle cx="197.966" cy="195.879" r="3.30928" transform="rotate(120 197.966 195.879)" fill="#fff"/>
<ellipse cx="3.30928" cy="3.30928" rx="3.30928" ry="3.30928" transform="matrix(-0.5 0.866025 0.866025 0.5 90.9336 136.377)" fill="#fff"/>
<ellipse cx="3.30928" cy="3.30928" rx="3.30928" ry="3.30928" transform="matrix(0.5 -0.866025 -0.866025 -0.5 142.305 288.315)" fill="#fff"/>
<circle cx="58.8379" cy="246.24" r="3.30928" transform="rotate(-60 58.8379 246.24)" fill="#fff"/>
<ellipse cx="181.136" cy="214.439" rx="3.30928" ry="3.30928" transform="rotate(120 181.136 214.439)" fill="#fff"/>
<ellipse cx="3.30928" cy="3.30928" rx="3.30928" ry="3.30928" transform="matrix(-0.5 0.866025 0.866025 0.5 83.6465 168.853)" fill="#fff"/>
<ellipse cx="3.30928" cy="3.30928" rx="3.30928" ry="3.30928" transform="matrix(0.5 -0.866025 -0.866025 -0.5 159.653 300.624)" fill="#fff"/>
<circle cx="29.3399" cy="233.794" r="3.30928" transform="rotate(-60 29.3399 233.794)" fill="#fff"/>
<ellipse cx="200.688" cy="229.549" rx="3.30928" ry="3.30928" transform="rotate(120 200.688 229.549)" fill="#fff"/>
<ellipse cx="3.30928" cy="3.30928" rx="3.30928" ry="3.30928" transform="matrix(-0.5 0.866025 0.866025 0.5 61.7773 157.755)" fill="#fff"/>
<ellipse cx="3.30928" cy="3.30928" rx="3.30928" ry="3.30928" transform="matrix(0.5 -0.866025 -0.866025 -0.5 167.006 272.006)" fill="#fff"/>
<ellipse cx="57.8995" cy="217.42" rx="3.30928" ry="3.30928" transform="rotate(-60 57.8995 217.42)" fill="#fff"/>
<ellipse cx="180.354" cy="242.265" rx="3.30928" ry="3.30928" transform="rotate(120 180.354 242.265)" fill="#fff"/>
<ellipse cx="3.30928" cy="3.30928" rx="3.30928" ry="3.30928" transform="matrix(-0.5 0.866025 0.866025 0.5 66.332 185.606)" fill="#fff"/>
<ellipse cx="182.157" cy="261.648" rx="3.30928" ry="3.30928" transform="rotate(120 182.157 261.648)" fill="#fff"/>
<ellipse cx="3.30928" cy="3.30927" rx="3.30928" ry="3.30927" transform="matrix(-0.5 0.866025 0.866025 0.5 41.4365 190.338)" fill="#fff"/>
<ellipse cx="1.20001" cy="1.19089" rx="1.20001" ry="1.19089" transform="matrix(0.864926 -0.501899 0.498084 0.867129 94.334 242.895)" fill="#fff"/>
<ellipse cx="1.20001" cy="1.19089" rx="1.20001" ry="1.19089" transform="matrix(-0.864926 0.501899 0.498084 0.867129 136.948 211.558)" fill="#fff"/>
<ellipse cx="1.20001" cy="1.19089" rx="1.20001" ry="1.19089" transform="matrix(0.864926 -0.501899 0.498084 0.867129 95.4609 234.256)" fill="#fff"/>
<ellipse cx="1.20001" cy="1.19089" rx="1.20001" ry="1.19089" transform="matrix(-0.864926 0.501899 0.498084 0.867129 139.913 203.229)" fill="#fff"/>
<ellipse cx="1.20001" cy="1.19089" rx="1.20001" ry="1.19089" transform="matrix(0.864926 -0.501899 0.498084 0.867129 86.9785 230.09)" fill="#fff"/>
<ellipse cx="1.20001" cy="1.19089" rx="1.20001" ry="1.19089" transform="matrix(-0.864926 0.501899 0.498084 0.867129 132.439 203.71)" fill="#fff"/>
<ellipse cx="1.20001" cy="1.19089" rx="1.20001" ry="1.19089" transform="matrix(0.864926 -0.501899 0.498084 0.867129 92.4355 224.17)" fill="#fff"/>
<ellipse cx="1.20001" cy="1.19089" rx="1.20001" ry="1.19089" transform="matrix(0.864926 -0.501899 -0.498084 -0.867129 106.315 244.479)" fill="#fff"/>
<ellipse cx="1.20001" cy="1.19089" rx="1.20001" ry="1.19089" transform="matrix(-0.864926 0.501899 0.498084 0.867129 130.423 194.416)" fill="#fff"/>
<ellipse cx="1.20001" cy="1.19089" rx="1.20001" ry="1.19089" transform="matrix(-0.864926 0.501899 -0.498084 -0.867129 149.226 222.333)" fill="#fff"/>
<ellipse cx="1.20001" cy="1.19089" rx="1.20001" ry="1.19089" transform="matrix(0.864926 -0.501899 0.498084 0.867129 85.4951 216.907)" fill="#fff"/>
<ellipse cx="1.20001" cy="1.19089" rx="1.20001" ry="1.19089" transform="matrix(0.864926 -0.501899 -0.498084 -0.867129 109.696 255.184)" fill="#fff"/>
<ellipse cx="1.20001" cy="1.19089" rx="1.20001" ry="1.19089" transform="matrix(-0.864926 0.501899 0.498084 0.867129 121.318 198.323)" fill="#fff"/>
<ellipse cx="1.20001" cy="1.19089" rx="1.20001" ry="1.19089" transform="matrix(-0.864926 0.501899 -0.498084 -0.867129 141.338 226.91)" fill="#fff"/>
<ellipse cx="1.20001" cy="1.19089" rx="1.20001" ry="1.19089" transform="matrix(0.864926 -0.501899 0.498084 0.867129 94.125 214.102)" fill="#fff"/>
<ellipse cx="1.20001" cy="1.19089" rx="1.20001" ry="1.19089" transform="matrix(0.864926 -0.501899 -0.498084 -0.867129 117.881 246.304)" fill="#fff"/>
<ellipse cx="1.20001" cy="1.19089" rx="1.20001" ry="1.19089" transform="matrix(-0.864926 0.501899 0.498084 0.867129 118.146 191.352)" fill="#fff"/>
<ellipse cx="1.20001" cy="1.19089" rx="1.20001" ry="1.19089" transform="matrix(-0.864926 0.501899 -0.498084 -0.867129 148.277 236.101)" fill="#fff"/>
<ellipse cx="1.20001" cy="1.19089" rx="1.20001" ry="1.19089" transform="matrix(0.864926 -0.501899 0.498084 0.867129 90.7734 205.858)" fill="#fff"/>
<ellipse cx="1.20001" cy="1.19089" rx="1.20001" ry="1.19089" transform="matrix(0.864926 -0.501899 -0.498084 -0.867129 122.686 253.705)" fill="#fff"/>
<ellipse cx="1.20001" cy="1.19089" rx="1.20001" ry="1.19089" transform="matrix(-0.864926 0.501899 0.498084 0.867129 110.643 199.01)" fill="#fff"/>
<ellipse cx="1.20001" cy="1.19089" rx="1.20001" ry="1.19089" transform="matrix(-0.864926 0.501899 -0.498084 -0.867129 136.386 236.117)" fill="#fff"/>
<ellipse cx="1.20001" cy="1.19089" rx="1.20001" ry="1.19089" transform="matrix(0.864926 -0.501899 0.498084 0.867129 99.4336 205.515)" fill="#fff"/>
<ellipse cx="1.20001" cy="1.19089" rx="1.20001" ry="1.19089" transform="matrix(0.864926 -0.501899 -0.498084 -0.867129 126.333 244.154)" fill="#fff"/>
<ellipse cx="1.20001" cy="1.19089" rx="1.20001" ry="1.19089" transform="matrix(0.864926 -0.501899 0.498084 0.867129 102.398 199.113)" fill="#fff"/>
<ellipse cx="1.20001" cy="1.19089" rx="1.20001" ry="1.19089" transform="matrix(0.864926 -0.501899 -0.498084 -0.867129 134.963 247.132)" fill="#fff"/>
</g>
</g>
<defs>
<filter id="filter0_f_1_498" x="170.745" y="48.632" width="208.991" height="209.476" filterUnits="userSpaceOnUse" color-interpolation-filters="sRGB">
<feFlood flood-opacity="0" result="BackgroundImageFix"/>
<feBlend mode="normal" in="SourceGraphic" in2="BackgroundImageFix" result="shape"/>
<feGaussianBlur stdDeviation="1" result="effect1_foregroundBlur_1_498"/>
</filter>
<filter id="filter1_f_1_498" x="309.057" y="193.829" width="110.092" height="110.343" filterUnits="userSpaceOnUse" color-interpolation-filters="sRGB">
<feFlood flood-opacity="0" result="BackgroundImageFix"/>
<feBlend mode="normal" in="SourceGraphic" in2="BackgroundImageFix" result="shape"/>
<feGaussianBlur stdDeviation="1" result="effect1_foregroundBlur_1_498"/>
</filter>
<filter id="filter2_f_1_498" x="77.1484" y="183.355" width="291.48" height="264.75" filterUnits="userSpaceOnUse" color-interpolation-filters="sRGB">
<feFlood flood-opacity="0" result="BackgroundImageFix"/>
<feBlend mode="normal" in="SourceGraphic" in2="BackgroundImageFix" result="shape"/>
<feGaussianBlur stdDeviation="1" result="effect1_foregroundBlur_1_498"/>
</filter>
<filter id="filter3_f_1_498" x="13.5527" y="118.369" width="208.991" height="209.476" filterUnits="userSpaceOnUse" color-interpolation-filters="sRGB">
<feFlood flood-opacity="0" result="BackgroundImageFix"/>
<feBlend mode="normal" in="SourceGraphic" in2="BackgroundImageFix" result="shape"/>
<feGaussianBlur stdDeviation="1" result="effect1_foregroundBlur_1_498"/>
</filter>
</defs>
</svg>
