<svg width="483" height="482" viewBox="0 0 483 482" fill="none" xmlns="http://www.w3.org/2000/svg">
<g style="mix-blend-mode:luminosity" opacity="0.5">
<g filter="url(#filter0_f_1_516)">
<ellipse cx="3.47753" cy="3.35619" rx="3.47753" ry="3.35619" transform="matrix(-0.875672 0.482907 -0.464846 -0.885392 366.021 252.356)" fill="#fff"/>
<ellipse cx="3.47752" cy="3.35618" rx="3.47752" ry="3.35618" transform="matrix(0.875672 -0.482907 -0.464846 -0.885392 240.131 340.174)" fill="#fff"/>
<ellipse cx="3.47753" cy="3.35619" rx="3.47753" ry="3.35619" transform="matrix(-0.875672 0.482907 -0.464846 -0.885392 361.671 276.98)" fill="#fff"/>
<ellipse cx="3.47752" cy="3.35618" rx="3.47752" ry="3.35618" transform="matrix(0.875672 -0.482907 -0.464846 -0.885392 230.566 363.841)" fill="#fff"/>
<ellipse cx="3.47753" cy="3.35619" rx="3.47753" ry="3.35619" transform="matrix(-0.875672 0.482907 -0.464846 -0.885392 385.366 289.203)" fill="#fff"/>
<ellipse cx="3.47752" cy="3.35618" rx="3.47752" ry="3.35618" transform="matrix(0.875672 -0.482907 -0.464846 -0.885392 251.988 362.757)" fill="#fff"/>
<ellipse cx="3.47752" cy="3.35619" rx="3.47752" ry="3.35619" transform="matrix(-0.875672 0.482907 -0.464846 -0.885392 368.998 305.894)" fill="#fff"/>
<ellipse cx="3.47752" cy="3.35619" rx="3.47752" ry="3.35619" transform="matrix(-0.875672 0.482907 0.464846 0.885391 331.987 247.367)" fill="#fff"/>
<ellipse cx="3.47752" cy="3.35619" rx="3.47752" ry="3.35619" transform="matrix(0.875672 -0.482907 -0.464846 -0.885392 256.536 389.371)" fill="#fff"/>
<ellipse cx="3.47752" cy="3.35618" rx="3.47752" ry="3.35618" transform="matrix(0.875672 -0.482907 0.464846 0.885392 206.451 308.933)" fill="#fff"/>
<ellipse cx="3.47752" cy="3.35619" rx="3.47752" ry="3.35619" transform="matrix(-0.875672 0.482907 -0.464846 -0.885392 387.881 326.902)" fill="#fff"/>
<ellipse cx="3.47752" cy="3.35618" rx="3.47752" ry="3.35618" transform="matrix(-0.875672 0.482907 0.464846 0.885391 323.725 216.67)" fill="#fff"/>
<ellipse cx="3.47752" cy="3.35619" rx="3.47752" ry="3.35619" transform="matrix(0.875672 -0.482907 -0.464846 -0.885392 283.067 378.573)" fill="#fff"/>
<ellipse cx="3.47752" cy="3.35618" rx="3.47752" ry="3.35618" transform="matrix(0.875672 -0.482907 0.464846 0.885392 229.595 296.17)" fill="#fff"/>
<ellipse cx="3.47752" cy="3.35619" rx="3.47752" ry="3.35619" transform="matrix(-0.875672 0.482907 -0.464846 -0.885391 362.851 334.574)" fill="#fff"/>
<ellipse cx="3.47752" cy="3.35619" rx="3.47752" ry="3.35619" transform="matrix(-0.875672 0.482907 0.464846 0.885391 299.171 241.706)" fill="#fff"/>
<ellipse cx="3.47752" cy="3.35619" rx="3.47752" ry="3.35619" transform="matrix(0.875672 -0.482907 -0.464846 -0.885392 291.225 398.598)" fill="#fff"/>
<ellipse cx="3.47752" cy="3.35619" rx="3.47752" ry="3.35619" transform="matrix(0.875672 -0.482907 0.464846 0.885391 210.963 269.658)" fill="#fff"/>
<ellipse cx="3.47752" cy="3.35619" rx="3.47752" ry="3.35619" transform="matrix(-0.875672 0.482907 -0.464846 -0.885391 371.35 358.243)" fill="#fff"/>
<ellipse cx="3.47752" cy="3.35619" rx="3.47752" ry="3.35619" transform="matrix(-0.875672 0.482907 0.464846 0.885391 286.408 220.389)" fill="#fff"/>
<ellipse cx="3.47752" cy="3.35619" rx="3.47752" ry="3.35619" transform="matrix(0.875672 -0.482907 -0.464846 -0.885392 313.669 377.024)" fill="#fff"/>
<ellipse cx="3.47752" cy="3.35618" rx="3.47752" ry="3.35618" transform="matrix(0.875672 -0.482907 0.464846 0.885392 244.952 270.074)" fill="#fff"/>
<ellipse cx="3.47752" cy="3.35619" rx="3.47752" ry="3.35619" transform="matrix(-0.875672 0.482907 -0.464846 -0.885392 346.557 358.888)" fill="#fff"/>
<ellipse cx="3.47752" cy="3.35618" rx="3.47752" ry="3.35618" transform="matrix(-0.875672 0.482907 0.464846 0.885392 274.734 247.519)" fill="#fff"/>
<ellipse cx="3.47752" cy="3.35619" rx="3.47752" ry="3.35619" transform="matrix(-0.875672 0.482907 -0.464846 -0.885392 337.244 377.051)" fill="#fff"/>
<ellipse cx="3.47752" cy="3.35618" rx="3.47752" ry="3.35618" transform="matrix(-0.875672 0.482907 0.464846 0.885392 250.46 238.68)" fill="#fff"/>
<ellipse cx="2.45211" cy="2.48506" rx="2.45211" ry="2.48506" transform="matrix(-0.846469 -0.515262 0.535549 -0.854815 320.308 320.302)" fill="#fff"/>
<ellipse cx="2.45211" cy="2.48506" rx="2.45211" ry="2.48506" transform="matrix(0.846469 0.515262 0.535549 -0.854815 273.398 291.747)" fill="#fff"/>
<ellipse cx="2.45211" cy="2.48506" rx="2.45211" ry="2.48506" transform="matrix(-0.846469 -0.515262 0.535549 -0.854815 317.454 325.314)" fill="#fff"/>
<ellipse cx="2.45211" cy="2.48506" rx="2.45211" ry="2.48506" transform="matrix(0.846469 0.515262 0.535549 -0.854815 270.13 296.507)" fill="#fff"/>
<ellipse cx="2.45211" cy="2.48506" rx="2.45211" ry="2.48506" transform="matrix(-0.846469 -0.515262 0.535549 -0.854815 313.43 329.907)" fill="#fff"/>
<ellipse cx="2.45211" cy="2.48506" rx="2.45211" ry="2.48506" transform="matrix(0.846469 0.515262 0.535549 -0.854815 267.766 302.11)" fill="#fff"/>
<ellipse cx="2.45211" cy="2.48506" rx="2.45211" ry="2.48506" transform="matrix(-0.846469 -0.515262 0.535548 -0.854815 308.5 333.655)" fill="#fff"/>
<ellipse cx="2.45211" cy="2.48506" rx="2.45211" ry="2.48506" transform="matrix(-0.846469 -0.515262 -0.535549 0.854815 324.562 309.393)" fill="#fff"/>
<ellipse cx="2.45211" cy="2.48506" rx="2.45211" ry="2.48506" transform="matrix(0.846469 0.515262 0.535549 -0.854815 266.572 308.133)" fill="#fff"/>
<ellipse cx="2.45211" cy="2.48506" rx="2.45211" ry="2.48506" transform="matrix(0.846469 0.515262 -0.535549 0.854815 280.973 282.86)" fill="#fff"/>
<ellipse cx="2.45211" cy="2.48506" rx="2.45211" ry="2.48506" transform="matrix(-0.846469 -0.515262 0.535548 -0.854815 302.726 336.009)" fill="#fff"/>
<ellipse cx="2.45211" cy="2.48506" rx="2.45211" ry="2.48506" transform="matrix(-0.846469 -0.515262 -0.535549 0.854815 324.301 302.486)" fill="#fff"/>
<ellipse cx="2.45211" cy="2.48506" rx="2.45211" ry="2.48506" transform="matrix(0.846469 0.515262 0.535549 -0.854815 267.024 314.277)" fill="#fff"/>
<ellipse cx="2.45211" cy="2.48506" rx="2.45211" ry="2.48506" transform="matrix(0.846469 0.515262 -0.535549 0.854815 287.147 279.869)" fill="#fff"/>
<ellipse cx="2.45211" cy="2.48506" rx="2.45211" ry="2.48506" transform="matrix(-0.846469 -0.515262 0.535549 -0.854815 296.785 336.795)" fill="#fff"/>
<ellipse cx="2.45211" cy="2.48506" rx="2.45211" ry="2.48506" transform="matrix(-0.846469 -0.515262 -0.535549 0.854815 322.338 296.009)" fill="#fff"/>
<ellipse cx="2.45211" cy="2.48506" rx="2.45211" ry="2.48506" transform="matrix(0.846469 0.515262 0.535548 -0.854815 268.972 319.864)" fill="#fff"/>
<ellipse cx="2.45211" cy="2.48506" rx="2.45211" ry="2.48506" transform="matrix(0.846469 0.515262 -0.535548 0.854815 294.109 278.825)" fill="#fff"/>
<ellipse cx="2.45211" cy="2.48506" rx="2.45211" ry="2.48506" transform="matrix(-0.846469 -0.515262 0.535548 -0.854815 291.037 336.817)" fill="#fff"/>
<ellipse cx="2.45211" cy="2.48506" rx="2.45211" ry="2.48506" transform="matrix(-0.846469 -0.515262 -0.535548 0.854815 319.784 290.933)" fill="#fff"/>
<ellipse cx="2.45211" cy="2.48506" rx="2.45211" ry="2.48506" transform="matrix(0.846469 0.515262 0.535549 -0.854815 271.526 324.94)" fill="#fff"/>
<ellipse cx="2.45211" cy="2.48506" rx="2.45211" ry="2.48506" transform="matrix(0.846469 0.515262 -0.535549 0.854815 300.272 279.056)" fill="#fff"/>
<ellipse cx="2.45211" cy="2.48506" rx="2.45211" ry="2.48506" transform="matrix(-0.846469 -0.515262 0.535549 -0.854815 285.598 334.973)" fill="#fff"/>
<ellipse cx="2.45211" cy="2.48506" rx="2.45211" ry="2.48506" transform="matrix(-0.846469 -0.515262 -0.535549 0.854815 315.675 286.964)" fill="#fff"/>
<ellipse cx="2.45211" cy="2.48506" rx="2.45211" ry="2.48506" transform="matrix(-0.846469 -0.515262 0.535549 -0.854815 280.616 331.941)" fill="#fff"/>
<ellipse cx="2.45211" cy="2.48506" rx="2.45211" ry="2.48506" transform="matrix(-0.846469 -0.515262 -0.535548 0.854815 310.693 283.932)" fill="#fff"/>
</g>
<g filter="url(#filter1_f_1_516)">
<ellipse cx="3.57337" cy="3.50086" rx="3.57337" ry="3.50086" transform="matrix(0.304178 -0.952615 0.962815 0.270161 164.106 409.156)" fill="#eee"/>
<ellipse cx="3.57337" cy="3.50086" rx="3.57337" ry="3.50086" transform="matrix(-0.304178 0.952615 0.962815 0.270161 188.67 332.224)" fill="#eee"/>
<ellipse cx="3.57337" cy="3.50086" rx="3.57337" ry="3.50086" transform="matrix(0.304178 -0.952615 0.962815 0.270161 156.245 407.321)" fill="#eee"/>
<ellipse cx="3.57337" cy="3.50086" rx="3.57337" ry="3.50086" transform="matrix(-0.304178 0.952615 0.962815 0.270161 181.027 329.709)" fill="#eee"/>
<ellipse cx="3.57337" cy="3.50086" rx="3.57337" ry="3.50086" transform="matrix(0.304178 -0.952615 0.962815 0.270161 148.59 403.689)" fill="#eee"/>
<ellipse cx="3.57337" cy="3.50086" rx="3.57337" ry="3.50086" transform="matrix(-0.304178 0.952615 0.962815 0.270161 172.502 328.8)" fill="#eee"/>
<ellipse cx="3.57337" cy="3.50086" rx="3.57337" ry="3.50086" transform="matrix(0.304178 -0.952615 0.962815 0.270161 141.815 398.45)" fill="#eee"/>
<ellipse cx="3.57337" cy="3.50086" rx="3.57337" ry="3.50086" transform="matrix(0.304178 -0.952615 -0.962815 -0.270161 180.589 410.443)" fill="#eee"/>
<ellipse cx="3.57337" cy="3.50086" rx="3.57337" ry="3.50086" transform="matrix(-0.304178 0.952615 0.962815 0.270161 163.771 329.689)" fill="#eee"/>
<ellipse cx="3.57337" cy="3.50086" rx="3.57337" ry="3.50086" transform="matrix(-0.304178 0.952615 -0.962815 -0.270161 203.415 338.958)" fill="#eee"/>
<ellipse cx="3.57337" cy="3.50086" rx="3.57337" ry="3.50086" transform="matrix(0.304178 -0.952615 0.962815 0.270161 136.705 391.453)" fill="#eee"/>
<ellipse cx="3.57337" cy="3.50086" rx="3.57337" ry="3.50086" transform="matrix(0.304178 -0.952615 -0.962815 -0.270161 190.081 407.172)" fill="#eee"/>
<ellipse cx="3.57337" cy="3.50086" rx="3.57337" ry="3.50086" transform="matrix(-0.304178 0.952615 0.962815 0.270161 155.4 332.903)" fill="#eee"/>
<ellipse cx="3.57337" cy="3.50086" rx="3.57337" ry="3.50086" transform="matrix(-0.304178 0.952615 -0.962815 -0.270161 209.537 346.239)" fill="#eee"/>
<ellipse cx="3.57337" cy="3.50086" rx="3.57337" ry="3.50086" transform="matrix(0.304178 -0.952615 0.962815 0.270161 133.713 383.566)" fill="#eee"/>
<ellipse cx="3.57337" cy="3.50086" rx="3.57337" ry="3.50086" transform="matrix(0.304178 -0.952615 -0.962815 -0.270161 198.431 401.726)" fill="#eee"/>
<ellipse cx="3.57337" cy="3.50086" rx="3.57337" ry="3.50086" transform="matrix(-0.304178 0.952615 0.962815 0.270161 148.278 337.952)" fill="#eee"/>
<ellipse cx="3.57337" cy="3.50086" rx="3.57337" ry="3.50086" transform="matrix(-0.304178 0.952615 -0.962815 -0.270161 213.213 355.431)" fill="#eee"/>
<ellipse cx="3.57337" cy="3.50086" rx="3.57337" ry="3.50086" transform="matrix(0.304178 -0.952615 0.962815 0.270161 131.843 375.623)" fill="#eee"/>
<ellipse cx="3.57337" cy="3.50086" rx="3.57337" ry="3.50086" transform="matrix(0.304178 -0.952615 -0.962815 -0.270161 204.649 396.052)" fill="#eee"/>
<ellipse cx="3.57337" cy="3.50086" rx="3.57337" ry="3.50086" transform="matrix(-0.304178 0.952615 0.962815 0.270161 142.06 343.625)" fill="#eee"/>
<ellipse cx="3.57337" cy="3.50086" rx="3.57337" ry="3.50086" transform="matrix(-0.304178 0.952615 -0.962815 -0.270161 214.867 364.054)" fill="#eee"/>
<ellipse cx="3.57337" cy="3.50086" rx="3.57337" ry="3.50086" transform="matrix(0.304178 -0.952615 0.962815 0.270161 132.657 367.321)" fill="#eee"/>
<ellipse cx="3.57337" cy="3.50086" rx="3.57337" ry="3.50086" transform="matrix(0.304178 -0.952615 -0.962815 -0.270161 208.834 388.696)" fill="#eee"/>
<ellipse cx="3.57337" cy="3.50086" rx="3.57337" ry="3.50086" transform="matrix(0.304178 -0.952615 0.962815 0.270161 135.266 359.151)" fill="#eee"/>
<ellipse cx="3.57337" cy="3.50086" rx="3.57337" ry="3.50086" transform="matrix(0.304178 -0.952615 -0.962815 -0.270161 211.443 380.526)" fill="#eee"/>
<ellipse cx="0.631386" cy="0.646158" rx="0.631386" ry="0.646158" transform="matrix(0.215836 0.981788 -0.964656 0.24376 167.171 354.814)" fill="#fff"/>
<ellipse cx="0.631386" cy="0.646158" rx="0.631386" ry="0.646158" transform="matrix(-0.215836 -0.981788 -0.964656 0.24376 176.131 381.209)" fill="#fff"/>
<ellipse cx="0.631386" cy="0.646158" rx="0.631386" ry="0.646158" transform="matrix(0.215836 0.981788 -0.964656 0.24376 171.386 356.628)" fill="#fff"/>
<ellipse cx="0.631386" cy="0.646157" rx="0.631386" ry="0.646157" transform="matrix(-0.215836 -0.981788 -0.964657 0.243759 179.887 383.924)" fill="#fff"/>
<ellipse cx="0.631386" cy="0.646157" rx="0.631386" ry="0.646157" transform="matrix(0.215836 0.981788 -0.964656 0.24376 174.9 352.861)" fill="#fff"/>
<ellipse cx="0.631386" cy="0.646158" rx="0.631386" ry="0.646158" transform="matrix(-0.215836 -0.981788 -0.964656 0.24376 180.869 380.012)" fill="#fff"/>
<ellipse cx="0.631386" cy="0.646157" rx="0.631386" ry="0.646157" transform="matrix(0.215836 0.981788 -0.964656 0.24376 177.019 356.513)" fill="#fff"/>
<ellipse cx="0.631387" cy="0.646158" rx="0.631387" ry="0.646158" transform="matrix(0.215836 0.981788 0.964656 -0.243759 164.396 360.75)" fill="#fff"/>
<ellipse cx="0.631386" cy="0.646157" rx="0.631386" ry="0.646157" transform="matrix(-0.215836 -0.981788 -0.964657 0.243759 185.933 380.303)" fill="#fff"/>
<ellipse cx="0.631386" cy="0.646157" rx="0.631386" ry="0.646157" transform="matrix(-0.215836 -0.981788 0.964657 -0.243759 168.628 385.984)" fill="#fff"/>
<ellipse cx="0.631386" cy="0.646157" rx="0.631386" ry="0.646157" transform="matrix(0.215836 0.981788 -0.964656 0.24376 181.857 353.982)" fill="#fff"/>
<ellipse cx="0.631387" cy="0.646157" rx="0.631387" ry="0.646157" transform="matrix(0.215836 0.981788 0.964657 -0.243759 158.389 360.959)" fill="#fff"/>
<ellipse cx="0.631386" cy="0.646157" rx="0.631386" ry="0.646157" transform="matrix(-0.215836 -0.981788 -0.964656 0.243759 185.439 375.062)" fill="#fff"/>
<ellipse cx="0.631386" cy="0.646157" rx="0.631386" ry="0.646157" transform="matrix(-0.215836 -0.981788 0.964657 -0.243759 167.592 381.273)" fill="#fff"/>
<ellipse cx="0.631387" cy="0.646158" rx="0.631387" ry="0.646158" transform="matrix(0.215836 0.981788 -0.964657 0.243759 181.869 358.821)" fill="#fff"/>
<ellipse cx="0.631387" cy="0.646157" rx="0.631387" ry="0.646157" transform="matrix(0.215836 0.981788 0.964657 -0.243759 161.567 366.437)" fill="#fff"/>
<ellipse cx="0.631386" cy="0.646158" rx="0.631386" ry="0.646158" transform="matrix(-0.215836 -0.981788 -0.964656 0.243759 189.51 374.426)" fill="#fff"/>
<ellipse cx="0.631386" cy="0.646157" rx="0.631386" ry="0.646157" transform="matrix(-0.215836 -0.981788 0.964657 -0.243759 161.772 383.529)" fill="#fff"/>
<ellipse cx="0.631386" cy="0.646158" rx="0.631386" ry="0.646158" transform="matrix(0.215836 0.981788 -0.964656 0.24376 186.617 358.275)" fill="#fff"/>
<ellipse cx="0.631387" cy="0.646157" rx="0.631387" ry="0.646157" transform="matrix(0.215836 0.981788 0.964657 -0.243759 157.009 367.851)" fill="#fff"/>
<ellipse cx="0.631386" cy="0.646158" rx="0.631386" ry="0.646158" transform="matrix(-0.215836 -0.981788 -0.964656 0.243759 186.842 369.473)" fill="#fff"/>
<ellipse cx="0.631386" cy="0.646157" rx="0.631386" ry="0.646157" transform="matrix(-0.215836 -0.981788 0.964657 -0.243759 163.717 377.41)" fill="#fff"/>
<ellipse cx="0.631386" cy="0.646158" rx="0.631386" ry="0.646158" transform="matrix(0.215836 0.981788 -0.964656 0.243759 185.37 362.778)" fill="#fff"/>
<ellipse cx="0.631386" cy="0.646157" rx="0.631386" ry="0.646157" transform="matrix(0.215836 0.981788 0.964656 -0.243759 161.275 371.092)" fill="#fff"/>
<ellipse cx="0.631386" cy="0.646157" rx="0.631386" ry="0.646157" transform="matrix(0.215836 0.981788 -0.964657 0.243759 188.144 365.218)" fill="#fff"/>
<ellipse cx="0.631386" cy="0.646157" rx="0.631386" ry="0.646157" transform="matrix(0.215836 0.981788 0.964657 -0.243759 158.341 375.105)" fill="#fff"/>
</g>
<g filter="url(#filter2_f_1_516)">
<ellipse cx="181.099" cy="288.049" rx="3.34662" ry="3.48673" transform="rotate(-133.298 181.099 288.049)" fill="#fff"/>
<ellipse cx="3.34662" cy="3.48673" rx="3.34662" ry="3.48673" transform="matrix(0.685796 0.727793 0.727793 -0.685796 68.1509 197.672)" fill="#fff"/>
<ellipse cx="156.283" cy="291.201" rx="3.34662" ry="3.48673" transform="rotate(-133.298 156.283 291.201)" fill="#fff"/>
<ellipse cx="3.34662" cy="3.48673" rx="3.34662" ry="3.48673" transform="matrix(0.685796 0.727793 0.727793 -0.685796 43.1177 195.51)" fill="#fff"/>
<ellipse cx="149.633" cy="317.7" rx="3.34662" ry="3.48673" transform="rotate(-133.298 149.633 317.7)" fill="#fff"/>
<ellipse cx="3.34662" cy="3.48673" rx="3.34662" ry="3.48673" transform="matrix(0.685796 0.727793 0.727793 -0.685796 48.8647 215.845)" fill="#fff"/>
<ellipse cx="129.868" cy="306.894" rx="3.34662" ry="3.48673" transform="rotate(-133.298 129.868 306.894)" fill="#fff"/>
<ellipse cx="3.34662" cy="3.48674" rx="3.34662" ry="3.48674" transform="matrix(-0.685796 -0.727793 -0.727793 0.685796 178.229 258.565)" fill="#fff"/>
<ellipse cx="3.34661" cy="3.48673" rx="3.34661" ry="3.48673" transform="matrix(0.685796 0.727793 0.727793 -0.685796 24.0708 228.173)" fill="#fff"/>
<ellipse cx="90.799" cy="160.697" rx="3.34662" ry="3.48673" transform="rotate(46.7017 90.799 160.697)" fill="#fff"/>
<ellipse cx="113.65" cy="331.373" rx="3.34662" ry="3.48673" transform="rotate(-133.298 113.65 331.373)" fill="#fff"/>
<ellipse cx="3.34662" cy="3.48673" rx="3.34662" ry="3.48673" transform="matrix(-0.685796 -0.727793 -0.727793 0.685796 206.166 241.438)" fill="#fff"/>
<ellipse cx="3.34662" cy="3.48673" rx="3.34662" ry="3.48673" transform="matrix(0.685796 0.727793 0.727793 -0.685796 40.3525 250.536)" fill="#fff"/>
<ellipse cx="108.241" cy="179.208" rx="3.34661" ry="3.48673" transform="rotate(46.7017 108.241 179.208)" fill="#fff"/>
<ellipse cx="100.727" cy="309.523" rx="3.34662" ry="3.48673" transform="rotate(-133.298 100.727 309.523)" fill="#fff"/>
<ellipse cx="3.34662" cy="3.48673" rx="3.34662" ry="3.48673" transform="matrix(-0.685796 -0.727793 -0.727793 0.685796 176.52 225.229)" fill="#fff"/>
<ellipse cx="3.34661" cy="3.48673" rx="3.34661" ry="3.48673" transform="matrix(0.685796 0.727793 0.727793 -0.685796 22.7349 264.378)" fill="#fff"/>
<ellipse cx="129.849" cy="153.33" rx="3.34661" ry="3.48673" transform="rotate(46.7017 129.849 153.33)" fill="#fff"/>
<ellipse cx="79.6532" cy="324.783" rx="3.34662" ry="3.48673" transform="rotate(-133.298 79.6532 324.783)" fill="#fff"/>
<ellipse cx="3.34662" cy="3.48673" rx="3.34662" ry="3.48673" transform="matrix(-0.685796 -0.727793 -0.727793 0.685796 194.38 206.56)" fill="#fff"/>
<ellipse cx="3.34661" cy="3.48673" rx="3.34661" ry="3.48673" transform="matrix(0.685796 0.727793 0.727793 -0.685796 48.563 279.586)" fill="#fff"/>
<ellipse cx="136.898" cy="186.232" rx="3.34661" ry="3.48673" transform="rotate(46.7017 136.898 186.232)" fill="#fff"/>
<ellipse cx="73.5926" cy="301.064" rx="3.34661" ry="3.48673" transform="rotate(-133.298 73.5926 301.064)" fill="#fff"/>
<ellipse cx="3.34662" cy="3.48673" rx="3.34662" ry="3.48673" transform="matrix(-0.685796 -0.727793 -0.727793 0.685796 165.529 203.397)" fill="#fff"/>
<ellipse cx="53.9481" cy="297.503" rx="3.34662" ry="3.48673" transform="rotate(-133.298 53.9481 297.503)" fill="#fff"/>
<ellipse cx="3.34662" cy="3.48673" rx="3.34662" ry="3.48673" transform="matrix(-0.685796 -0.727793 -0.727793 0.685796 168.772 177.35)" fill="#fff"/>
<ellipse cx="1.21997" cy="1.24851" rx="1.21997" ry="1.24851" transform="matrix(0.215836 0.981788 -0.964656 0.24376 100.269 215.406)" fill="#fff"/>
<ellipse cx="1.21997" cy="1.24851" rx="1.21997" ry="1.24851" transform="matrix(-0.215836 -0.981788 -0.964656 0.24376 117.583 266.406)" fill="#fff"/>
<ellipse cx="1.21997" cy="1.24851" rx="1.21997" ry="1.24851" transform="matrix(0.215836 0.981788 -0.964656 0.24376 108.413 218.911)" fill="#fff"/>
<ellipse cx="1.21997" cy="1.24851" rx="1.21997" ry="1.24851" transform="matrix(-0.215836 -0.981788 -0.964657 0.243759 124.838 271.653)" fill="#fff"/>
<ellipse cx="1.21997" cy="1.24851" rx="1.21997" ry="1.24851" transform="matrix(0.215836 0.981788 -0.964657 0.243759 115.203 211.632)" fill="#fff"/>
<ellipse cx="1.21997" cy="1.24851" rx="1.21997" ry="1.24851" transform="matrix(-0.215836 -0.981788 -0.964656 0.24376 126.736 264.093)" fill="#fff"/>
<ellipse cx="1.21997" cy="1.24851" rx="1.21997" ry="1.24851" transform="matrix(0.215836 0.981788 -0.964657 0.243759 119.297 218.689)" fill="#fff"/>
<ellipse cx="1.21997" cy="1.24851" rx="1.21997" ry="1.24851" transform="matrix(0.215836 0.981788 0.964656 -0.24376 94.9082 226.875)" fill="#fff"/>
<ellipse cx="1.21997" cy="1.24851" rx="1.21997" ry="1.24851" transform="matrix(-0.215836 -0.981788 -0.964656 0.243759 136.521 264.655)" fill="#fff"/>
<ellipse cx="1.21997" cy="1.24851" rx="1.21997" ry="1.24851" transform="matrix(-0.215836 -0.981788 0.964656 -0.24376 103.084 275.633)" fill="#fff"/>
<ellipse cx="1.21997" cy="1.24851" rx="1.21997" ry="1.24851" transform="matrix(0.215836 0.981788 -0.964657 0.243759 128.646 213.798)" fill="#fff"/>
<ellipse cx="1.21997" cy="1.24851" rx="1.21997" ry="1.24851" transform="matrix(0.215836 0.981788 0.964656 -0.24376 83.3013 227.279)" fill="#fff"/>
<ellipse cx="1.21997" cy="1.24851" rx="1.21997" ry="1.24851" transform="matrix(-0.215836 -0.981788 -0.964656 0.24376 135.567 254.529)" fill="#fff"/>
<ellipse cx="1.21997" cy="1.24851" rx="1.21997" ry="1.24851" transform="matrix(-0.215836 -0.981788 0.964656 -0.24376 101.083 266.53)" fill="#fff"/>
<ellipse cx="1.21997" cy="1.24851" rx="1.21997" ry="1.24851" transform="matrix(0.215836 0.981788 -0.964656 0.24376 128.668 223.148)" fill="#fff"/>
<ellipse cx="1.21997" cy="1.24851" rx="1.21997" ry="1.24851" transform="matrix(0.215836 0.981788 0.964657 -0.243759 89.4424 237.864)" fill="#fff"/>
<ellipse cx="1.21997" cy="1.24851" rx="1.21997" ry="1.24851" transform="matrix(-0.215836 -0.981788 -0.964657 0.243759 143.433 253.3)" fill="#fff"/>
<ellipse cx="1.21997" cy="1.24851" rx="1.21997" ry="1.24851" transform="matrix(-0.215836 -0.981788 0.964656 -0.24376 89.8374 270.889)" fill="#fff"/>
<ellipse cx="1.21997" cy="1.24851" rx="1.21997" ry="1.24851" transform="matrix(0.215836 0.981788 -0.964656 0.24376 137.844 222.094)" fill="#fff"/>
<ellipse cx="1.21997" cy="1.24851" rx="1.21997" ry="1.24851" transform="matrix(0.215836 0.981788 0.964656 -0.24376 80.6353 240.595)" fill="#fff"/>
<ellipse cx="1.21997" cy="1.24851" rx="1.21997" ry="1.24851" transform="matrix(-0.215836 -0.981788 -0.964656 0.24376 138.278 243.73)" fill="#fff"/>
<ellipse cx="1.21997" cy="1.24851" rx="1.21997" ry="1.24851" transform="matrix(-0.215836 -0.981788 0.964656 -0.24376 93.5947 259.066)" fill="#fff"/>
<ellipse cx="1.21997" cy="1.24851" rx="1.21997" ry="1.24851" transform="matrix(0.215836 0.981788 -0.964656 0.24376 135.434 230.794)" fill="#fff"/>
<ellipse cx="1.21997" cy="1.24851" rx="1.21997" ry="1.24851" transform="matrix(0.215836 0.981788 0.964656 -0.24376 88.8765 246.857)" fill="#fff"/>
<ellipse cx="1.21997" cy="1.24851" rx="1.21997" ry="1.24851" transform="matrix(0.215836 0.981788 -0.964657 0.243759 140.793 235.508)" fill="#fff"/>
<ellipse cx="1.21997" cy="1.24851" rx="1.21997" ry="1.24851" transform="matrix(0.215836 0.981788 0.964656 -0.24376 83.2075 254.611)" fill="#fff"/>
<ellipse cx="1.21997" cy="1.24851" rx="1.21997" ry="1.24851" transform="matrix(0.215836 0.981788 -0.964657 0.243759 277.325 130.187)" fill="#fff"/>
<ellipse cx="1.21997" cy="1.24851" rx="1.21997" ry="1.24851" transform="matrix(-0.215836 -0.981788 -0.964657 0.243759 277.8 132.706)" fill="#fff"/>
<ellipse cx="1.21997" cy="1.24851" rx="1.21997" ry="1.24851" transform="matrix(0.215836 0.981788 -0.964657 0.243759 277.325 130.187)" fill="#fff"/>
<ellipse cx="1.21997" cy="1.24851" rx="1.21997" ry="1.24851" transform="matrix(-0.215836 -0.981788 -0.964657 0.243759 277.8 132.706)" fill="#fff"/>
<ellipse cx="1.21997" cy="1.24851" rx="1.21997" ry="1.24851" transform="matrix(0.215836 0.981788 -0.964657 0.243759 277.325 130.187)" fill="#fff"/>
<ellipse cx="1.21997" cy="1.24851" rx="1.21997" ry="1.24851" transform="matrix(-0.215836 -0.981788 -0.964657 0.243759 277.8 132.706)" fill="#fff"/>
<ellipse cx="1.21997" cy="1.24851" rx="1.21997" ry="1.24851" transform="matrix(0.215836 0.981788 -0.964657 0.243759 277.325 130.187)" fill="#fff"/>
<ellipse cx="1.21997" cy="1.24851" rx="1.21997" ry="1.24851" transform="matrix(0.215836 0.981788 0.964657 -0.243759 274.88 130.91)" fill="#fff"/>
<ellipse cx="1.21997" cy="1.24851" rx="1.21997" ry="1.24851" transform="matrix(-0.215836 -0.981788 -0.964657 0.243759 277.8 132.706)" fill="#fff"/>
<ellipse cx="1.21997" cy="1.24851" rx="1.21997" ry="1.24851" transform="matrix(-0.215836 -0.981788 0.964656 -0.24376 275.435 133.176)" fill="#fff"/>
<ellipse cx="1.21997" cy="1.24851" rx="1.21997" ry="1.24851" transform="matrix(0.215836 0.981788 -0.964657 0.243759 277.325 130.187)" fill="#fff"/>
<circle cx="5" cy="5" r="5" transform="matrix(0.222366 0.980208 0.966145 -0.237296 269.41 127.984)" fill="#fff"/>
<ellipse cx="1.21997" cy="1.24851" rx="1.21997" ry="1.24851" transform="matrix(-0.215836 -0.981788 -0.964657 0.243759 277.8 132.706)" fill="#fff"/>
<ellipse cx="1.21997" cy="1.24851" rx="1.21997" ry="1.24851" transform="matrix(-0.215836 -0.981788 0.964656 -0.24376 275.435 133.176)" fill="#fff"/>
<ellipse cx="1.21997" cy="1.24851" rx="1.21997" ry="1.24851" transform="matrix(0.215836 0.981788 -0.964657 0.243759 277.325 130.187)" fill="#fff"/>
<ellipse cx="1.21997" cy="1.24851" rx="1.21997" ry="1.24851" transform="matrix(0.215836 0.981788 0.964656 -0.24376 274.88 130.91)" fill="#fff"/>
<ellipse cx="1.21997" cy="1.24851" rx="1.21997" ry="1.24851" transform="matrix(-0.215836 -0.981788 -0.964657 0.243759 277.8 132.706)" fill="#fff"/>
<ellipse cx="1.21997" cy="1.24851" rx="1.21997" ry="1.24851" transform="matrix(-0.215836 -0.981788 0.964656 -0.24376 275.489 133.146)" fill="#fff"/>
<ellipse cx="1.21997" cy="1.24851" rx="1.21997" ry="1.24851" transform="matrix(0.215836 0.981788 -0.964657 0.243759 277.325 130.187)" fill="#fff"/>
<ellipse cx="1.21997" cy="1.24851" rx="1.21997" ry="1.24851" transform="matrix(0.215836 0.981788 0.964656 -0.24376 274.88 130.91)" fill="#fff"/>
<ellipse cx="1.21997" cy="1.24851" rx="1.21997" ry="1.24851" transform="matrix(-0.215836 -0.981788 -0.964657 0.243759 277.8 132.706)" fill="#fff"/>
<ellipse cx="1.21997" cy="1.24851" rx="1.21997" ry="1.24851" transform="matrix(-0.215836 -0.981788 0.964656 -0.24376 275.435 133.176)" fill="#fff"/>
<ellipse cx="1.21997" cy="1.24851" rx="1.21997" ry="1.24851" transform="matrix(0.215836 0.981788 -0.964657 0.243759 277.325 130.187)" fill="#fff"/>
<ellipse cx="1.21997" cy="1.24851" rx="1.21997" ry="1.24851" transform="matrix(0.215836 0.981788 0.964656 -0.24376 274.88 130.91)" fill="#fff"/>
<ellipse cx="1.21997" cy="1.24851" rx="1.21997" ry="1.24851" transform="matrix(0.215836 0.981788 -0.964657 0.243759 277.325 130.187)" fill="#808755"/>
<ellipse cx="1.21997" cy="1.24851" rx="1.21997" ry="1.24851" transform="matrix(0.215836 0.981788 0.964656 -0.24376 274.88 130.91)" fill="#fff"/>
</g>
<g filter="url(#filter3_f_1_516)">
<ellipse cx="345.794" cy="176.081" rx="3.34662" ry="3.48673" transform="rotate(-133.298 345.794 176.081)" fill="#fff"/>
<ellipse cx="3.34662" cy="3.48673" rx="3.34662" ry="3.48673" transform="matrix(0.685796 0.727793 0.727793 -0.685796 232.846 85.7042)" fill="#fff"/>
<ellipse cx="320.978" cy="179.233" rx="3.34662" ry="3.48673" transform="rotate(-133.298 320.978 179.233)" fill="#fff"/>
<ellipse cx="3.34662" cy="3.48673" rx="3.34662" ry="3.48673" transform="matrix(0.685796 0.727793 0.727793 -0.685796 207.813 83.5422)" fill="#fff"/>
<ellipse cx="314.327" cy="205.732" rx="3.34662" ry="3.48673" transform="rotate(-133.298 314.327 205.732)" fill="#fff"/>
<ellipse cx="3.34662" cy="3.48673" rx="3.34662" ry="3.48673" transform="matrix(0.685796 0.727793 0.727793 -0.685796 213.56 103.877)" fill="#fff"/>
<ellipse cx="294.564" cy="194.926" rx="3.34662" ry="3.48673" transform="rotate(-133.298 294.564 194.926)" fill="#fff"/>
<ellipse cx="3.34662" cy="3.48674" rx="3.34662" ry="3.48674" transform="matrix(-0.685796 -0.727793 -0.727793 0.685796 342.924 146.597)" fill="#fff"/>
<ellipse cx="3.34661" cy="3.48673" rx="3.34661" ry="3.48673" transform="matrix(0.685796 0.727793 0.727793 -0.685796 188.766 116.205)" fill="#fff"/>
<ellipse cx="255.494" cy="48.7287" rx="3.34662" ry="3.48673" transform="rotate(46.7017 255.494 48.7287)" fill="#fff"/>
<ellipse cx="278.346" cy="219.405" rx="3.34662" ry="3.48673" transform="rotate(-133.298 278.346 219.405)" fill="#fff"/>
<ellipse cx="3.34662" cy="3.48673" rx="3.34662" ry="3.48673" transform="matrix(-0.685796 -0.727793 -0.727793 0.685796 370.86 129.47)" fill="#fff"/>
<ellipse cx="3.34662" cy="3.48673" rx="3.34662" ry="3.48673" transform="matrix(0.685796 0.727793 0.727793 -0.685796 205.048 138.568)" fill="#fff"/>
<ellipse cx="272.937" cy="67.2396" rx="3.34661" ry="3.48673" transform="rotate(46.7017 272.937 67.2396)" fill="#fff"/>
<ellipse cx="265.422" cy="197.555" rx="3.34662" ry="3.48673" transform="rotate(-133.298 265.422 197.555)" fill="#fff"/>
<ellipse cx="3.34662" cy="3.48673" rx="3.34662" ry="3.48673" transform="matrix(-0.685796 -0.727793 -0.727793 0.685796 341.215 113.261)" fill="#fff"/>
<ellipse cx="3.34661" cy="3.48673" rx="3.34661" ry="3.48673" transform="matrix(0.685796 0.727793 0.727793 -0.685796 187.43 152.41)" fill="#fff"/>
<ellipse cx="294.544" cy="41.3614" rx="3.34661" ry="3.48673" transform="rotate(46.7017 294.544 41.3614)" fill="#fff"/>
<ellipse cx="244.349" cy="212.814" rx="3.34662" ry="3.48673" transform="rotate(-133.298 244.349 212.814)" fill="#fff"/>
<ellipse cx="3.34662" cy="3.48673" rx="3.34662" ry="3.48673" transform="matrix(-0.685796 -0.727793 -0.727793 0.685796 359.075 94.5919)" fill="#fff"/>
<ellipse cx="3.34661" cy="3.48673" rx="3.34661" ry="3.48673" transform="matrix(0.685796 0.727793 0.727793 -0.685796 213.258 167.618)" fill="#fff"/>
<ellipse cx="301.593" cy="74.2639" rx="3.34661" ry="3.48673" transform="rotate(46.7017 301.593 74.2639)" fill="#fff"/>
<ellipse cx="238.288" cy="189.096" rx="3.34661" ry="3.48673" transform="rotate(-133.298 238.288 189.096)" fill="#fff"/>
<ellipse cx="3.34662" cy="3.48673" rx="3.34662" ry="3.48673" transform="matrix(-0.685796 -0.727793 -0.727793 0.685796 330.225 91.429)" fill="#fff"/>
<ellipse cx="218.643" cy="185.535" rx="3.34662" ry="3.48673" transform="rotate(-133.298 218.643 185.535)" fill="#fff"/>
<ellipse cx="3.34662" cy="3.48673" rx="3.34662" ry="3.48673" transform="matrix(-0.685796 -0.727793 -0.727793 0.685796 333.467 65.3819)" fill="#fff"/>
<ellipse cx="1.21997" cy="1.24851" rx="1.21997" ry="1.24851" transform="matrix(0.215836 0.981788 -0.964656 0.24376 264.964 103.438)" fill="#fff"/>
<ellipse cx="1.21997" cy="1.24851" rx="1.21997" ry="1.24851" transform="matrix(-0.215836 -0.981788 -0.964656 0.24376 282.277 154.439)" fill="#fff"/>
<ellipse cx="1.21997" cy="1.24851" rx="1.21997" ry="1.24851" transform="matrix(0.215836 0.981788 -0.964656 0.24376 273.107 106.943)" fill="#fff"/>
<ellipse cx="1.21997" cy="1.24851" rx="1.21997" ry="1.24851" transform="matrix(-0.215836 -0.981788 -0.964657 0.243759 289.533 159.685)" fill="#fff"/>
<ellipse cx="1.21997" cy="1.24851" rx="1.21997" ry="1.24851" transform="matrix(0.215836 0.981788 -0.964657 0.243759 279.897 99.6642)" fill="#fff"/>
<ellipse cx="1.21997" cy="1.24851" rx="1.21997" ry="1.24851" transform="matrix(-0.215836 -0.981788 -0.964656 0.24376 291.431 152.126)" fill="#fff"/>
<ellipse cx="1.21997" cy="1.24851" rx="1.21997" ry="1.24851" transform="matrix(0.215836 0.981788 -0.964657 0.243759 283.992 106.721)" fill="#fff"/>
<ellipse cx="1.21997" cy="1.24851" rx="1.21997" ry="1.24851" transform="matrix(0.215836 0.981788 0.964656 -0.24376 259.603 114.907)" fill="#fff"/>
<ellipse cx="1.21997" cy="1.24851" rx="1.21997" ry="1.24851" transform="matrix(-0.215836 -0.981788 -0.964656 0.243759 301.216 152.687)" fill="#fff"/>
<ellipse cx="1.21997" cy="1.24851" rx="1.21997" ry="1.24851" transform="matrix(-0.215836 -0.981788 0.964656 -0.24376 267.779 163.665)" fill="#fff"/>
<ellipse cx="1.21997" cy="1.24851" rx="1.21997" ry="1.24851" transform="matrix(0.215836 0.981788 -0.964657 0.243759 293.341 101.83)" fill="#fff"/>
<ellipse cx="1.21997" cy="1.24851" rx="1.21997" ry="1.24851" transform="matrix(0.215836 0.981788 0.964656 -0.24376 247.996 115.311)" fill="#fff"/>
<ellipse cx="1.21997" cy="1.24851" rx="1.21997" ry="1.24851" transform="matrix(-0.215836 -0.981788 -0.964656 0.24376 300.262 142.561)" fill="#fff"/>
<ellipse cx="1.21997" cy="1.24851" rx="1.21997" ry="1.24851" transform="matrix(-0.215836 -0.981788 0.964656 -0.24376 265.778 154.562)" fill="#fff"/>
<ellipse cx="1.21997" cy="1.24851" rx="1.21997" ry="1.24851" transform="matrix(0.215836 0.981788 -0.964656 0.24376 293.362 111.18)" fill="#fff"/>
<ellipse cx="1.21997" cy="1.24851" rx="1.21997" ry="1.24851" transform="matrix(0.215836 0.981788 0.964657 -0.243759 254.137 125.897)" fill="#fff"/>
<ellipse cx="1.21997" cy="1.24851" rx="1.21997" ry="1.24851" transform="matrix(-0.215836 -0.981788 -0.964657 0.243759 308.128 141.332)" fill="#fff"/>
<ellipse cx="1.21997" cy="1.24851" rx="1.21997" ry="1.24851" transform="matrix(-0.215836 -0.981788 0.964656 -0.24376 254.532 158.921)" fill="#fff"/>
<ellipse cx="1.21997" cy="1.24851" rx="1.21997" ry="1.24851" transform="matrix(0.215836 0.981788 -0.964656 0.24376 302.538 110.126)" fill="#fff"/>
<ellipse cx="1.21997" cy="1.24851" rx="1.21997" ry="1.24851" transform="matrix(0.215836 0.981788 0.964656 -0.24376 245.33 128.628)" fill="#fff"/>
<ellipse cx="1.21997" cy="1.24851" rx="1.21997" ry="1.24851" transform="matrix(-0.215836 -0.981788 -0.964656 0.24376 302.973 131.762)" fill="#fff"/>
<ellipse cx="1.21997" cy="1.24851" rx="1.21997" ry="1.24851" transform="matrix(-0.215836 -0.981788 0.964656 -0.24376 258.289 147.099)" fill="#fff"/>
<ellipse cx="1.21997" cy="1.24851" rx="1.21997" ry="1.24851" transform="matrix(0.215836 0.981788 -0.964656 0.24376 300.129 118.826)" fill="#fff"/>
<ellipse cx="1.21997" cy="1.24851" rx="1.21997" ry="1.24851" transform="matrix(0.215836 0.981788 0.964656 -0.24376 253.571 134.89)" fill="#fff"/>
<ellipse cx="1.21997" cy="1.24851" rx="1.21997" ry="1.24851" transform="matrix(0.215836 0.981788 -0.964657 0.243759 305.487 123.541)" fill="#fff"/>
<ellipse cx="1.21997" cy="1.24851" rx="1.21997" ry="1.24851" transform="matrix(0.215836 0.981788 0.964656 -0.24376 247.902 142.643)" fill="#fff"/>
</g>
</g>
<defs>
<filter id="filter0_f_1_516" x="183.977" y="196.362" width="223.356" height="223.147" filterUnits="userSpaceOnUse" color-interpolation-filters="sRGB">
<feFlood flood-opacity="0" result="BackgroundImageFix"/>
<feBlend mode="normal" in="SourceGraphic" in2="BackgroundImageFix" result="shape"/>
<feGaussianBlur stdDeviation="1" result="effect1_foregroundBlur_1_516"/>
</filter>
<filter id="filter1_f_1_516" x="114.591" y="311.13" width="117.527" height="117.418" filterUnits="userSpaceOnUse" color-interpolation-filters="sRGB">
<feFlood flood-opacity="0" result="BackgroundImageFix"/>
<feBlend mode="normal" in="SourceGraphic" in2="BackgroundImageFix" result="shape"/>
<feGaussianBlur stdDeviation="1" result="effect1_foregroundBlur_1_516"/>
</filter>
<filter id="filter2_f_1_516" x="0.538086" y="91.6373" width="315.688" height="264.373" filterUnits="userSpaceOnUse" color-interpolation-filters="sRGB">
<feFlood flood-opacity="0" result="BackgroundImageFix"/>
<feBlend mode="normal" in="SourceGraphic" in2="BackgroundImageFix" result="shape"/>
<feGaussianBlur stdDeviation="1" result="effect1_foregroundBlur_1_516"/>
</filter>
<filter id="filter3_f_1_516" x="165.233" y="20.895" width="223.356" height="223.147" filterUnits="userSpaceOnUse" color-interpolation-filters="sRGB">
<feFlood flood-opacity="0" result="BackgroundImageFix"/>
<feBlend mode="normal" in="SourceGraphic" in2="BackgroundImageFix" result="shape"/>
<feGaussianBlur stdDeviation="1" result="effect1_foregroundBlur_1_516"/>
</filter>
</defs>
</svg>
