<svg width="344" height="352" viewBox="0 0 344 352" fill="none" xmlns="http://www.w3.org/2000/svg">
<g style="mix-blend-mode:luminosity" opacity="0.5">
<g filter="url(#filter0_f_1_480)">
<ellipse cx="3.30928" cy="3.30928" rx="3.30928" ry="3.30928" transform="matrix(0.258819 0.965926 0.965926 -0.258819 81.7324 101.271)" fill="#fff"/>
<ellipse cx="106.244" cy="241.337" rx="3.30928" ry="3.30928" transform="rotate(-105 106.244 241.337)" fill="#fff"/>
<ellipse cx="3.30927" cy="3.30928" rx="3.30927" ry="3.30928" transform="matrix(0.258819 0.965926 0.965926 -0.258819 66.9619 120.304)" fill="#fff"/>
<ellipse cx="95.6974" cy="263.349" rx="3.30928" ry="3.30928" transform="rotate(-105 95.6974 263.349)" fill="#fff"/>
<ellipse cx="3.30928" cy="3.30928" rx="3.30928" ry="3.30928" transform="matrix(0.258819 0.965926 0.965926 -0.258819 42.0957 111.892)" fill="#fff"/>
<ellipse cx="81.9513" cy="247.847" rx="3.30928" ry="3.30928" transform="rotate(-105 81.9513 247.847)" fill="#fff"/>
<ellipse cx="3.30928" cy="3.30928" rx="3.30928" ry="3.30928" transform="matrix(0.258819 0.965926 0.965926 -0.258819 41.1846 134.063)" fill="#fff"/>
<ellipse cx="106.063" cy="125.586" rx="3.30927" ry="3.30928" transform="rotate(75 106.063 125.586)" fill="#fff"/>
<ellipse cx="59.7131" cy="262.028" rx="3.30928" ry="3.30928" transform="rotate(-105 59.7131 262.028)" fill="#fff"/>
<ellipse cx="3.30928" cy="3.30928" rx="3.30928" ry="3.30928" transform="matrix(-0.258819 -0.965926 -0.965926 0.258819 149.228 248.32)" fill="#fff"/>
<ellipse cx="3.30928" cy="3.30928" rx="3.30928" ry="3.30928" transform="matrix(0.258819 0.965926 0.965926 -0.258819 13.2598 134.693)" fill="#fff"/>
<ellipse cx="133.759" cy="111.313" rx="3.30928" ry="3.30928" transform="rotate(75 133.759 111.313)" fill="#fff"/>
<ellipse cx="49.4933" cy="236.673" rx="3.30928" ry="3.30928" transform="rotate(-105 49.4933 236.673)" fill="#fff"/>
<ellipse cx="3.30928" cy="3.30928" rx="3.30928" ry="3.30928" transform="matrix(-0.258819 -0.965926 -0.965926 0.258819 142.719 224.027)" fill="#fff"/>
<ellipse cx="3.30928" cy="3.30928" rx="3.30928" ry="3.30928" transform="matrix(0.258819 0.965926 0.965926 -0.258819 24.7129 156.977)" fill="#fff"/>
<circle cx="132.391" cy="144.57" r="3.30928" transform="rotate(75 132.391 144.57)" fill="#fff"/>
<circle cx="29.549" cy="244.072" r="3.30928" transform="rotate(-105 29.549 244.072)" fill="#fff"/>
<ellipse cx="3.30928" cy="3.30928" rx="3.30928" ry="3.30928" transform="matrix(-0.258819 -0.965926 -0.965926 0.258819 174.433 219.64)" fill="#fff"/>
<ellipse cx="3.30928" cy="3.30928" rx="3.30928" ry="3.30928" transform="matrix(0.258819 0.965926 0.965926 -0.258819 1.91504 166.512)" fill="#fff"/>
<ellipse cx="156.388" cy="139.51" rx="3.30928" ry="3.30927" transform="rotate(75 156.388 139.51)" fill="#fff"/>
<ellipse cx="29.8547" cy="214.527" rx="3.30928" ry="3.30928" transform="rotate(-105 29.8547 214.527)" fill="#fff"/>
<ellipse cx="3.30928" cy="3.30928" rx="3.30928" ry="3.30928" transform="matrix(-0.258819 -0.965926 -0.965926 0.258819 151.084 196.433)" fill="#fff"/>
<ellipse cx="3.30928" cy="3.30928" rx="3.30928" ry="3.30928" transform="matrix(0.258819 0.965926 0.965926 -0.258819 18.2646 184.057)" fill="#fff"/>
<circle cx="144.78" cy="165.232" r="3.30928" transform="rotate(75 144.78 165.232)" fill="#fff"/>
<ellipse cx="3.30928" cy="3.30928" rx="3.30928" ry="3.30928" transform="matrix(0.258819 0.965926 0.965926 -0.258819 11.5078 202.313)" fill="#fff"/>
<ellipse cx="167.602" cy="176.247" rx="3.30928" ry="3.30928" transform="rotate(75 167.602 176.247)" fill="#fff"/>
<ellipse cx="2.39617" cy="2.38564" rx="2.39617" ry="2.38564" transform="matrix(0.966904 0.25514 0.26251 -0.964929 63.835 177.074)" fill="#fff"/>
<ellipse cx="2.39617" cy="2.38564" rx="2.39617" ry="2.38564" transform="matrix(-0.966904 -0.25514 0.26251 -0.964929 116.196 190.89)" fill="#fff"/>
<ellipse cx="2.39617" cy="2.38564" rx="2.39617" ry="2.38564" transform="matrix(0.966904 0.25514 0.26251 -0.964929 62.1631 182.307)" fill="#fff"/>
<ellipse cx="2.39617" cy="2.38564" rx="2.39617" ry="2.38564" transform="matrix(-0.966904 -0.25514 0.26251 -0.964929 114.987 196.246)" fill="#fff"/>
<ellipse cx="2.39617" cy="2.38564" rx="2.39617" ry="2.38564" transform="matrix(0.966904 0.25514 0.26251 -0.964929 61.5869 188.076)" fill="#fff"/>
<ellipse cx="2.39617" cy="2.38564" rx="2.39617" ry="2.38564" transform="matrix(-0.966904 -0.25514 0.26251 -0.964929 112.558 201.526)" fill="#fff"/>
<ellipse cx="2.39617" cy="2.38564" rx="2.39617" ry="2.38564" transform="matrix(0.966904 0.25514 0.26251 -0.964929 62.2314 193.921)" fill="#fff"/>
<ellipse cx="2.39617" cy="2.38564" rx="2.39617" ry="2.38564" transform="matrix(0.966904 0.25514 -0.26251 0.964929 68.8008 167.035)" fill="#fff"/>
<ellipse cx="2.39617" cy="2.38564" rx="2.39617" ry="2.38564" transform="matrix(-0.966904 -0.25514 0.26251 -0.964929 109.032 206.27)" fill="#fff"/>
<ellipse cx="2.39617" cy="2.38564" rx="2.39617" ry="2.38564" transform="matrix(-0.966904 -0.25514 -0.26251 0.964929 117.455 179.873)" fill="#fff"/>
<ellipse cx="2.39617" cy="2.38564" rx="2.39617" ry="2.38564" transform="matrix(0.966904 0.25514 0.26251 -0.964929 64.4541 199.442)" fill="#fff"/>
<ellipse cx="2.39617" cy="2.38564" rx="2.39617" ry="2.38564" transform="matrix(0.966904 0.25514 -0.26251 0.964929 73.9482 162.718)" fill="#fff"/>
<ellipse cx="2.39617" cy="2.38564" rx="2.39617" ry="2.38564" transform="matrix(-0.966904 -0.25514 0.26251 -0.964929 104.305 209.957)" fill="#fff"/>
<ellipse cx="2.39617" cy="2.38564" rx="2.39617" ry="2.38564" transform="matrix(-0.966904 -0.25514 -0.26251 0.964929 115.42 173.662)" fill="#fff"/>
<ellipse cx="2.39617" cy="2.38564" rx="2.39617" ry="2.38564" transform="matrix(0.966904 0.25514 0.26251 -0.964929 67.917 204.057)" fill="#fff"/>
<ellipse cx="2.39617" cy="2.38564" rx="2.39617" ry="2.38564" transform="matrix(0.966904 0.25514 -0.26251 0.964929 79.9414 159.859)" fill="#fff"/>
<ellipse cx="2.39617" cy="2.38564" rx="2.39617" ry="2.38564" transform="matrix(-0.966904 -0.25514 0.26251 -0.964929 98.9629 212.249)" fill="#fff"/>
<ellipse cx="2.39617" cy="2.38564" rx="2.39617" ry="2.38564" transform="matrix(-0.966904 -0.25514 -0.26251 0.964929 111.45 168.173)" fill="#fff"/>
<ellipse cx="2.39617" cy="2.38564" rx="2.39617" ry="2.38564" transform="matrix(0.966904 0.25514 0.26251 -0.964929 71.7988 208.042)" fill="#fff"/>
<ellipse cx="2.39617" cy="2.38564" rx="2.39617" ry="2.38564" transform="matrix(0.966904 0.25514 -0.26251 0.964929 85.3262 158.319)" fill="#fff"/>
<ellipse cx="2.39617" cy="2.38564" rx="2.39617" ry="2.38564" transform="matrix(-0.966904 -0.25514 0.26251 -0.964929 93.5781 213.788)" fill="#fff"/>
<ellipse cx="2.39617" cy="2.38564" rx="2.39617" ry="2.38564" transform="matrix(-0.966904 -0.25514 -0.26251 0.964929 107.104 164.066)" fill="#fff"/>
<ellipse cx="2.39617" cy="2.38564" rx="2.39617" ry="2.38564" transform="matrix(0.966904 0.25514 0.26251 -0.964929 76.8145 210.599)" fill="#fff"/>
<ellipse cx="2.39617" cy="2.38564" rx="2.39617" ry="2.38564" transform="matrix(0.966904 0.25514 -0.26251 0.964929 90.9678 158.574)" fill="#fff"/>
<ellipse cx="2.39617" cy="2.38564" rx="2.39617" ry="2.38564" transform="matrix(0.966904 0.25514 0.26251 -0.964929 82.375 212.066)" fill="#fff"/>
<ellipse cx="2.39617" cy="2.38564" rx="2.39617" ry="2.38564" transform="matrix(0.966904 0.25514 -0.26251 0.964929 96.5283 160.041)" fill="#fff"/>
</g>
<g filter="url(#filter1_f_1_480)">
<circle cx="3.42539" cy="3.42539" r="3.42539" transform="matrix(0.5 -0.866025 -0.866025 -0.5 105.815 342.805)" fill="#fff"/>
<ellipse cx="139.843" cy="277.016" rx="3.42539" ry="3.42539" transform="rotate(120 139.843 277.016)" fill="#fff"/>
<ellipse cx="3.42539" cy="3.42539" rx="3.42539" ry="3.42539" transform="matrix(0.5 -0.866025 -0.866025 -0.5 112.467 347.041)" fill="#fff"/>
<ellipse cx="146.837" cy="280.659" rx="3.42539" ry="3.42539" transform="rotate(120 146.837 280.659)" fill="#fff"/>
<ellipse cx="3.42539" cy="3.42539" rx="3.42539" ry="3.42539" transform="matrix(0.5 -0.866025 -0.866025 -0.5 120.271 349.965)" fill="#fff"/>
<ellipse cx="153.272" cy="285.956" rx="3.42539" ry="3.42539" transform="rotate(120 153.272 285.956)" fill="#fff"/>
<circle cx="3.42539" cy="3.42539" r="3.42539" transform="matrix(0.5 -0.866025 -0.866025 -0.5 128.636 351.234)" fill="#fff"/>
<ellipse cx="98.3901" cy="331.003" rx="3.42539" ry="3.42539" transform="rotate(-60 98.3901 331.003)" fill="#fff"/>
<ellipse cx="158.553" cy="292.565" rx="3.42539" ry="3.42539" transform="rotate(120 158.553 292.565)" fill="#fff"/>
<ellipse cx="3.42539" cy="3.42539" rx="3.42539" ry="3.42539" transform="matrix(-0.5 0.866026 0.866025 0.5 129.678 269.961)" fill="#fff"/>
<circle cx="3.42539" cy="3.42539" r="3.42539" transform="matrix(0.5 -0.866025 -0.866025 -0.5 137.138 350.21)" fill="#fff"/>
<circle cx="94.3071" cy="322.317" r="3.42539" transform="rotate(-60 94.3071 322.317)" fill="#fff"/>
<ellipse cx="161.918" cy="300.44" rx="3.42539" ry="3.42539" transform="rotate(120 161.918 300.44)" fill="#fff"/>
<ellipse cx="3.42539" cy="3.42539" rx="3.42539" ry="3.42539" transform="matrix(-0.5 0.866026 0.866025 0.5 120.285 270.471)" fill="#fff"/>
<circle cx="3.42539" cy="3.42539" r="3.42539" transform="matrix(0.5 -0.866025 -0.866025 -0.5 144.842 347.142)" fill="#fff"/>
<circle cx="92.5649" cy="313.005" r="3.42539" transform="rotate(-60 92.5649 313.005)" fill="#fff"/>
<ellipse cx="163.113" cy="308.645" rx="3.42539" ry="3.42539" transform="rotate(120 163.113 308.645)" fill="#fff"/>
<ellipse cx="3.42539" cy="3.42539" rx="3.42539" ry="3.42539" transform="matrix(-0.5 0.866025 0.866026 0.5 111.178 273.914)" fill="#fff"/>
<circle cx="3.42539" cy="3.42539" r="3.42539" transform="matrix(0.5 -0.866025 -0.866025 -0.5 151.827 343.265)" fill="#fff"/>
<circle cx="92.4302" cy="305.017" r="3.42539" transform="rotate(-60 92.4302 305.017)" fill="#fff"/>
<ellipse cx="163.247" cy="316.634" rx="3.42539" ry="3.42539" transform="rotate(120 163.247 316.634)" fill="#fff"/>
<circle cx="3.42539" cy="3.42539" r="3.42539" transform="matrix(-0.5 0.866025 0.866025 0.5 103.851 278.385)" fill="#fff"/>
<ellipse cx="3.42539" cy="3.42539" rx="3.42539" ry="3.42539" transform="matrix(0.5 -0.866025 -0.866025 -0.5 157.249 337.298)" fill="#fff"/>
<circle cx="94.8862" cy="297.337" r="3.42539" transform="rotate(-60 94.8862 297.337)" fill="#fff"/>
<ellipse cx="3.42539" cy="3.42539" rx="3.42539" ry="3.42539" transform="matrix(0.5 -0.866025 -0.866026 -0.5 161.359 330.179)" fill="#fff"/>
<circle cx="98.9966" cy="290.218" r="3.42539" transform="rotate(-60 98.9966 290.218)" fill="#fff"/>
<ellipse cx="0.621057" cy="0.616336" rx="0.621057" ry="0.616336" transform="matrix(-0.86712 0.498099 0.501914 0.864918 142.846 305.317)" fill="#fff"/>
<ellipse cx="0.621057" cy="0.616337" rx="0.621057" ry="0.616337" transform="matrix(0.86712 -0.498099 0.501914 0.864918 117.773 316.307)" fill="#fff"/>
<ellipse cx="0.621057" cy="0.616337" rx="0.621057" ry="0.616337" transform="matrix(-0.86712 0.498099 0.501914 0.864918 138.682 303.586)" fill="#fff"/>
<ellipse cx="0.621057" cy="0.616337" rx="0.621057" ry="0.616337" transform="matrix(0.86712 -0.498099 0.501914 0.864918 113.272 315.481)" fill="#fff"/>
<ellipse cx="0.621057" cy="0.616337" rx="0.621057" ry="0.616337" transform="matrix(-0.86712 0.498099 0.501914 0.864918 139.01 298.707)" fill="#fff"/>
<ellipse cx="0.621057" cy="0.616337" rx="0.621057" ry="0.616337" transform="matrix(0.86712 -0.498099 0.501914 0.864918 115.422 312.256)" fill="#fff"/>
<ellipse cx="0.621057" cy="0.616337" rx="0.621057" ry="0.616337" transform="matrix(-0.86712 0.498099 0.501914 0.864918 134.944 299.62)" fill="#fff"/>
<ellipse cx="0.621057" cy="0.616337" rx="0.621057" ry="0.616337" transform="matrix(-0.86712 0.498099 -0.501914 -0.864918 140.455 311.097)" fill="#fff"/>
<ellipse cx="0.621057" cy="0.616336" rx="0.621057" ry="0.616336" transform="matrix(0.86712 -0.498099 0.501914 0.864918 111.778 308.947)" fill="#fff"/>
<ellipse cx="0.621057" cy="0.616337" rx="0.621057" ry="0.616337" transform="matrix(0.86712 -0.498099 -0.501914 -0.864918 119.425 324.599)" fill="#fff"/>
<ellipse cx="0.621057" cy="0.616336" rx="0.621057" ry="0.616336" transform="matrix(-0.86712 0.498099 0.501914 0.864918 133.484 294.63)" fill="#fff"/>
<ellipse cx="0.621058" cy="0.616337" rx="0.621058" ry="0.616337" transform="matrix(-0.867121 0.498098 -0.501914 -0.864918 144.378 315.382)" fill="#fff"/>
<ellipse cx="0.621057" cy="0.616336" rx="0.621057" ry="0.616336" transform="matrix(0.86712 -0.498099 0.501914 0.864918 115.885 305.877)" fill="#fff"/>
<ellipse cx="0.621057" cy="0.616337" rx="0.621057" ry="0.616337" transform="matrix(0.86712 -0.498099 -0.501914 -0.864918 123.518 322.247)" fill="#fff"/>
<ellipse cx="0.621057" cy="0.616336" rx="0.621057" ry="0.616336" transform="matrix(-0.86712 0.498099 0.501914 0.864918 129.995 297.772)" fill="#fff"/>
<ellipse cx="0.621057" cy="0.616337" rx="0.621057" ry="0.616337" transform="matrix(-0.86712 0.498099 -0.501914 -0.864918 138.28 316.753)" fill="#fff"/>
<ellipse cx="0.621057" cy="0.616336" rx="0.621057" ry="0.616336" transform="matrix(0.86712 -0.498099 0.501914 0.864918 113.582 302.651)" fill="#fff"/>
<ellipse cx="0.621057" cy="0.616337" rx="0.621057" ry="0.616337" transform="matrix(0.86712 -0.498099 -0.501914 -0.864918 125.842 327.736)" fill="#fff"/>
<ellipse cx="0.621058" cy="0.616337" rx="0.621058" ry="0.616337" transform="matrix(-0.867121 0.498098 0.501914 0.864918 127.167 294.137)" fill="#fff"/>
<ellipse cx="0.621057" cy="0.616337" rx="0.621057" ry="0.616337" transform="matrix(-0.86712 0.498099 -0.501914 -0.864918 140.354 320.821)" fill="#fff"/>
<ellipse cx="0.621057" cy="0.616336" rx="0.621057" ry="0.616336" transform="matrix(0.86712 -0.498099 0.501914 0.864918 118.956 301.27)" fill="#fff"/>
<ellipse cx="0.621057" cy="0.616336" rx="0.621057" ry="0.616336" transform="matrix(0.867121 -0.498098 -0.501914 -0.864918 128.926 322.41)" fill="#fff"/>
<ellipse cx="0.621057" cy="0.616337" rx="0.621057" ry="0.616337" transform="matrix(-0.86712 0.498099 0.501914 0.864918 124.772 297.929)" fill="#fff"/>
<ellipse cx="0.621058" cy="0.616337" rx="0.621058" ry="0.616337" transform="matrix(-0.867121 0.498098 -0.501914 -0.864918 135.13 319.984)" fill="#fff"/>
<ellipse cx="0.621057" cy="0.616336" rx="0.621057" ry="0.616336" transform="matrix(-0.86712 0.498099 0.501914 0.864918 121.136 297.602)" fill="#fff"/>
<ellipse cx="0.621057" cy="0.616337" rx="0.621057" ry="0.616337" transform="matrix(-0.86712 0.498099 -0.501914 -0.864918 134.231 324.623)" fill="#fff"/>
</g>
<g filter="url(#filter2_f_1_480)">
<ellipse cx="3.30928" cy="3.30928" rx="3.30928" ry="3.30928" transform="matrix(1 0 0 -1 178.14 255.548)" fill="#fff"/>
<ellipse cx="319.777" cy="268.124" rx="3.30927" ry="3.30928" transform="rotate(-180 319.777 268.124)" fill="#fff"/>
<ellipse cx="3.30928" cy="3.30928" rx="3.30928" ry="3.30928" transform="matrix(1 0 0 -1 192.7 274.742)" fill="#fff"/>
<circle cx="338.309" cy="284.008" r="3.30928" transform="rotate(-180 338.309 284.008)" fill="#fff"/>
<ellipse cx="3.30928" cy="3.30928" rx="3.30928" ry="3.30928" transform="matrix(1 0 0 -1 178.14 296.583)" fill="#fff"/>
<ellipse cx="319.777" cy="293.274" rx="3.30927" ry="3.30928" transform="rotate(-180 319.777 293.274)" fill="#fff"/>
<ellipse cx="3.30928" cy="3.30928" rx="3.30928" ry="3.30928" transform="matrix(1 0 0 -1 199.319 303.202)" fill="#fff"/>
<ellipse cx="207.924" cy="238.34" rx="3.30928" ry="3.30928" fill="#fff"/>
<ellipse cx="327.719" cy="318.425" rx="3.30928" ry="3.30928" transform="rotate(-180 327.719 318.425)" fill="#fff"/>
<ellipse cx="3.30927" cy="3.30928" rx="3.30927" ry="3.30928" transform="matrix(-1 0 0 1 337.646 228.412)" fill="#fff"/>
<circle cx="3.30928" cy="3.30928" r="3.30928" transform="matrix(1 0 0 -1 192.7 330.338)" fill="#fff"/>
<ellipse cx="201.304" cy="207.895" rx="3.30928" ry="3.30928" fill="#fff"/>
<ellipse cx="300.583" cy="321.734" rx="3.30928" ry="3.30928" transform="rotate(-180 300.583 321.734)" fill="#fff"/>
<circle cx="3.30928" cy="3.30928" r="3.30928" transform="matrix(-1 0 0 1 312.496 228.412)" fill="#fff"/>
<ellipse cx="3.30928" cy="3.30928" rx="3.30928" ry="3.30928" transform="matrix(1 0 0 -1 217.189 325.043)" fill="#fff"/>
<ellipse cx="233.074" cy="217.823" rx="3.30928" ry="3.30928" fill="#fff"/>
<ellipse cx="302.569" cy="342.913" rx="3.30928" ry="3.30928" transform="rotate(-180 302.569 342.913)" fill="#fff"/>
<circle cx="3.30928" cy="3.30928" r="3.30928" transform="matrix(-1 0 0 1 316.468 196.643)" fill="#fff"/>
<ellipse cx="3.30928" cy="3.30928" rx="3.30928" ry="3.30928" transform="matrix(1 0 0 -1 220.498 349.532)" fill="#fff"/>
<ellipse cx="234.397" cy="193.334" rx="3.30928" ry="3.30928" fill="#fff"/>
<ellipse cx="274.109" cy="334.971" rx="3.30928" ry="3.30928" transform="rotate(-180 274.109 334.971)" fill="#fff"/>
<ellipse cx="3.30928" cy="3.30928" rx="3.30928" ry="3.30928" transform="matrix(-1 0 0 1 288.008 213.19)" fill="#fff"/>
<ellipse cx="3.30928" cy="3.30928" rx="3.30928" ry="3.30928" transform="matrix(1 0 0 -1 241.678 338.28)" fill="#fff"/>
<ellipse cx="256.239" cy="211.204" rx="3.30928" ry="3.30928" fill="#fff"/>
<ellipse cx="3.30928" cy="3.30928" rx="3.30928" ry="3.30928" transform="matrix(1 0 0 -1 257.562 349.532)" fill="#fff"/>
<ellipse cx="272.785" cy="192.01" rx="3.30928" ry="3.30927" fill="#fff"/>
<ellipse cx="1.20001" cy="1.19089" rx="1.20001" ry="1.19089" transform="matrix(-0.867121 0.498098 0.501914 0.864918 288.543 260.79)" fill="#fff"/>
<ellipse cx="1.20001" cy="1.19089" rx="1.20001" ry="1.19089" transform="matrix(0.86712 -0.498099 0.501914 0.864918 240.098 282.026)" fill="#fff"/>
<ellipse cx="1.20001" cy="1.19089" rx="1.20001" ry="1.19089" transform="matrix(-0.867121 0.498098 0.501914 0.864918 280.498 257.446)" fill="#fff"/>
<ellipse cx="1.20001" cy="1.19089" rx="1.20001" ry="1.19089" transform="matrix(0.86712 -0.498099 0.501914 0.864918 231.401 280.429)" fill="#fff"/>
<ellipse cx="1.20001" cy="1.19089" rx="1.20001" ry="1.19089" transform="matrix(-0.86712 0.498099 0.501914 0.864918 281.131 248.018)" fill="#fff"/>
<ellipse cx="1.20001" cy="1.19089" rx="1.20001" ry="1.19089" transform="matrix(0.86712 -0.498099 0.501914 0.864918 235.555 274.198)" fill="#fff"/>
<ellipse cx="1.20001" cy="1.19089" rx="1.20001" ry="1.19089" transform="matrix(-0.86712 0.498099 0.501914 0.864918 273.276 249.783)" fill="#fff"/>
<ellipse cx="1.20001" cy="1.19089" rx="1.20001" ry="1.19089" transform="matrix(-0.86712 0.498099 -0.501913 -0.864918 283.925 271.958)" fill="#fff"/>
<ellipse cx="1.20001" cy="1.19089" rx="1.20001" ry="1.19089" transform="matrix(0.86712 -0.498099 0.501914 0.864918 228.515 267.804)" fill="#fff"/>
<ellipse cx="1.20001" cy="1.19089" rx="1.20001" ry="1.19089" transform="matrix(0.867121 -0.498098 -0.501914 -0.864918 243.29 298.046)" fill="#fff"/>
<ellipse cx="1.20001" cy="1.19089" rx="1.20001" ry="1.19089" transform="matrix(-0.86712 0.498098 0.501914 0.864918 270.456 240.141)" fill="#fff"/>
<ellipse cx="1.20001" cy="1.19089" rx="1.20001" ry="1.19089" transform="matrix(-0.86712 0.498099 -0.501914 -0.864918 291.505 280.238)" fill="#fff"/>
<ellipse cx="1.20001" cy="1.19089" rx="1.20001" ry="1.19089" transform="matrix(0.86712 -0.498099 0.501914 0.864918 236.45 261.873)" fill="#fff"/>
<ellipse cx="1.20001" cy="1.19089" rx="1.20001" ry="1.19089" transform="matrix(0.86712 -0.498099 -0.501914 -0.864918 251.198 293.504)" fill="#fff"/>
<ellipse cx="1.20001" cy="1.19089" rx="1.20001" ry="1.19089" transform="matrix(-0.867121 0.498098 0.501914 0.864918 263.712 246.213)" fill="#fff"/>
<ellipse cx="1.20001" cy="1.19089" rx="1.20001" ry="1.19089" transform="matrix(-0.86712 0.498099 -0.501914 -0.864918 279.722 282.887)" fill="#fff"/>
<ellipse cx="1.20001" cy="1.19089" rx="1.20001" ry="1.19089" transform="matrix(0.86712 -0.498099 0.501914 0.864918 232 255.639)" fill="#fff"/>
<ellipse cx="1.20001" cy="1.19089" rx="1.20001" ry="1.19089" transform="matrix(0.867121 -0.498098 -0.501914 -0.864918 255.687 304.109)" fill="#fff"/>
<ellipse cx="1.20001" cy="1.19089" rx="1.20001" ry="1.19089" transform="matrix(-0.86712 0.498099 0.501914 0.864918 258.248 239.188)" fill="#fff"/>
<ellipse cx="1.20001" cy="1.19089" rx="1.20001" ry="1.19089" transform="matrix(-0.86712 0.498099 -0.501914 -0.864918 283.729 290.748)" fill="#fff"/>
<ellipse cx="1.20001" cy="1.19089" rx="1.20001" ry="1.19089" transform="matrix(0.86712 -0.498098 0.501914 0.864918 242.383 252.971)" fill="#fff"/>
<ellipse cx="1.20001" cy="1.19089" rx="1.20001" ry="1.19089" transform="matrix(0.867121 -0.498098 -0.501914 -0.864918 261.647 293.818)" fill="#fff"/>
<ellipse cx="1.20001" cy="1.19089" rx="1.20001" ry="1.19089" transform="matrix(-0.86712 0.498099 0.501914 0.864918 253.621 246.516)" fill="#fff"/>
<ellipse cx="1.20001" cy="1.19089" rx="1.20001" ry="1.19089" transform="matrix(-0.86712 0.498099 -0.501914 -0.864918 273.634 289.131)" fill="#fff"/>
<ellipse cx="1.20001" cy="1.19089" rx="1.20001" ry="1.19089" transform="matrix(-0.86712 0.498099 0.501914 0.864918 246.595 245.883)" fill="#fff"/>
<ellipse cx="1.20001" cy="1.19089" rx="1.20001" ry="1.19089" transform="matrix(-0.86712 0.498099 -0.501914 -0.864918 271.897 298.093)" fill="#fff"/>
<ellipse cx="1.20001" cy="1.19089" rx="1.20001" ry="1.19089" transform="matrix(-0.86712 0.498099 0.501914 0.864918 229.804 83.0196)" fill="#fff"/>
<ellipse cx="1.20001" cy="1.19089" rx="1.20001" ry="1.19089" transform="matrix(0.867121 -0.498098 0.501914 0.864918 227.669 84.3309)" fill="#fff"/>
<ellipse cx="1.20001" cy="1.19089" rx="1.20001" ry="1.19089" transform="matrix(-0.86712 0.498099 0.501914 0.864918 229.804 83.0196)" fill="#fff"/>
<ellipse cx="1.20001" cy="1.19089" rx="1.20001" ry="1.19089" transform="matrix(0.867121 -0.498098 0.501914 0.864918 227.669 84.3309)" fill="#fff"/>
<ellipse cx="1.20001" cy="1.19089" rx="1.20001" ry="1.19089" transform="matrix(-0.86712 0.498099 0.501914 0.864918 229.804 83.0196)" fill="#fff"/>
<ellipse cx="1.20001" cy="1.19089" rx="1.20001" ry="1.19089" transform="matrix(0.867121 -0.498098 0.501914 0.864918 227.669 84.3309)" fill="#fff"/>
<ellipse cx="1.20001" cy="1.19089" rx="1.20001" ry="1.19089" transform="matrix(-0.86712 0.498099 0.501914 0.864918 229.804 83.0196)" fill="#fff"/>
<ellipse cx="1.20001" cy="1.19089" rx="1.20001" ry="1.19089" transform="matrix(-0.867121 0.498098 -0.501914 -0.864918 230.94 85.1791)" fill="#fff"/>
<ellipse cx="1.20001" cy="1.19089" rx="1.20001" ry="1.19089" transform="matrix(0.867121 -0.498098 0.501914 0.864918 227.669 84.3309)" fill="#fff"/>
<ellipse cx="1.20001" cy="1.19089" rx="1.20001" ry="1.19089" transform="matrix(0.867121 -0.498098 -0.501914 -0.864918 228.935 86.2706)" fill="#fff"/>
<ellipse cx="1.20001" cy="1.19089" rx="1.20001" ry="1.19089" transform="matrix(-0.86712 0.498099 0.501914 0.864918 229.804 83.0196)" fill="#fff"/>
<circle cx="229.318" cy="84.9682" r="5" transform="rotate(150 229.318 84.9682)" fill="#fff"/>
<ellipse cx="1.20001" cy="1.19089" rx="1.20001" ry="1.19089" transform="matrix(0.867121 -0.498098 0.501914 0.864918 227.669 84.3309)" fill="#fff"/>
<ellipse cx="1.20001" cy="1.19089" rx="1.20001" ry="1.19089" transform="matrix(0.867121 -0.498098 -0.501914 -0.864918 228.935 86.2706)" fill="#fff"/>
<ellipse cx="1.20001" cy="1.19089" rx="1.20001" ry="1.19089" transform="matrix(-0.86712 0.498099 0.501914 0.864918 229.804 83.0196)" fill="#fff"/>
<ellipse cx="1.20001" cy="1.19089" rx="1.20001" ry="1.19089" transform="matrix(-0.867121 0.498098 -0.501914 -0.864918 230.94 85.1791)" fill="#fff"/>
<ellipse cx="1.20001" cy="1.19089" rx="1.20001" ry="1.19089" transform="matrix(0.867121 -0.498098 0.501914 0.864918 227.669 84.3309)" fill="#fff"/>
<ellipse cx="1.20001" cy="1.19089" rx="1.20001" ry="1.19089" transform="matrix(0.867121 -0.498098 -0.501914 -0.864918 228.919 86.2137)" fill="#fff"/>
<ellipse cx="1.20001" cy="1.19089" rx="1.20001" ry="1.19089" transform="matrix(-0.86712 0.498099 0.501914 0.864918 229.804 83.0196)" fill="#fff"/>
<ellipse cx="1.20001" cy="1.19089" rx="1.20001" ry="1.19089" transform="matrix(-0.867121 0.498098 -0.501914 -0.864918 230.94 85.1791)" fill="#fff"/>
<ellipse cx="1.20001" cy="1.19089" rx="1.20001" ry="1.19089" transform="matrix(0.867121 -0.498098 0.501914 0.864918 227.669 84.3309)" fill="#fff"/>
<ellipse cx="1.20001" cy="1.19089" rx="1.20001" ry="1.19089" transform="matrix(0.867121 -0.498098 -0.501914 -0.864918 228.935 86.2706)" fill="#fff"/>
<ellipse cx="1.20001" cy="1.19089" rx="1.20001" ry="1.19089" transform="matrix(-0.86712 0.498099 0.501914 0.864918 229.804 83.0196)" fill="#fff"/>
<ellipse cx="1.20001" cy="1.19089" rx="1.20001" ry="1.19089" transform="matrix(-0.867121 0.498098 -0.501914 -0.864918 230.94 85.1791)" fill="#fff"/>
<ellipse cx="1.20001" cy="1.19089" rx="1.20001" ry="1.19089" transform="matrix(-0.86712 0.498099 0.501914 0.864918 229.804 83.0196)" fill="#808755"/>
<ellipse cx="1.20001" cy="1.19089" rx="1.20001" ry="1.19089" transform="matrix(-0.867121 0.498098 -0.501914 -0.864918 230.94 85.1791)" fill="#fff"/>
</g>
<g filter="url(#filter3_f_1_480)">
<ellipse cx="3.30928" cy="3.30928" rx="3.30928" ry="3.30928" transform="matrix(1 0 0 -1 147.033 68.9052)" fill="#fff"/>
<ellipse cx="288.67" cy="81.4804" rx="3.30927" ry="3.30928" transform="rotate(-180 288.67 81.4804)" fill="#fff"/>
<ellipse cx="3.30928" cy="3.30928" rx="3.30928" ry="3.30928" transform="matrix(1 0 0 -1 161.594 88.099)" fill="#fff"/>
<circle cx="307.202" cy="97.365" r="3.30928" transform="rotate(-180 307.202 97.365)" fill="#fff"/>
<ellipse cx="3.30928" cy="3.30928" rx="3.30928" ry="3.30928" transform="matrix(1 0 0 -1 147.033 109.94)" fill="#fff"/>
<ellipse cx="288.67" cy="106.631" rx="3.30927" ry="3.30928" transform="rotate(-180 288.67 106.631)" fill="#fff"/>
<ellipse cx="3.30928" cy="3.30928" rx="3.30928" ry="3.30928" transform="matrix(1 0 0 -1 168.213 116.559)" fill="#fff"/>
<ellipse cx="176.817" cy="51.6969" rx="3.30928" ry="3.30928" fill="#fff"/>
<ellipse cx="296.613" cy="131.781" rx="3.30928" ry="3.30928" transform="rotate(-180 296.613 131.781)" fill="#fff"/>
<ellipse cx="3.30927" cy="3.30928" rx="3.30927" ry="3.30928" transform="matrix(-1 0 0 1 306.54 41.7691)" fill="#fff"/>
<circle cx="3.30928" cy="3.30928" r="3.30928" transform="matrix(1 0 0 -1 161.594 143.695)" fill="#fff"/>
<ellipse cx="170.198" cy="21.2515" rx="3.30928" ry="3.30928" fill="#fff"/>
<ellipse cx="269.477" cy="135.091" rx="3.30928" ry="3.30928" transform="rotate(-180 269.477 135.091)" fill="#fff"/>
<circle cx="3.30928" cy="3.30928" r="3.30928" transform="matrix(-1 0 0 1 281.39 41.7691)" fill="#fff"/>
<ellipse cx="3.30928" cy="3.30928" rx="3.30928" ry="3.30928" transform="matrix(1 0 0 -1 186.083 138.4)" fill="#fff"/>
<ellipse cx="201.967" cy="31.1794" rx="3.30928" ry="3.30928" fill="#fff"/>
<ellipse cx="271.462" cy="156.27" rx="3.30928" ry="3.30928" transform="rotate(-180 271.462 156.27)" fill="#fff"/>
<circle cx="3.30928" cy="3.30928" r="3.30928" transform="matrix(-1 0 0 1 285.361 10)" fill="#fff"/>
<ellipse cx="3.30928" cy="3.30928" rx="3.30928" ry="3.30928" transform="matrix(1 0 0 -1 189.392 162.889)" fill="#fff"/>
<ellipse cx="203.291" cy="6.69075" rx="3.30928" ry="3.30928" fill="#fff"/>
<ellipse cx="243.002" cy="148.328" rx="3.30928" ry="3.30928" transform="rotate(-180 243.002 148.328)" fill="#fff"/>
<ellipse cx="3.30928" cy="3.30928" rx="3.30928" ry="3.30928" transform="matrix(-1 0 0 1 256.901 26.5464)" fill="#fff"/>
<ellipse cx="3.30928" cy="3.30928" rx="3.30928" ry="3.30928" transform="matrix(1 0 0 -1 210.571 151.637)" fill="#fff"/>
<ellipse cx="225.133" cy="24.5609" rx="3.30928" ry="3.30928" fill="#fff"/>
<ellipse cx="3.30928" cy="3.30928" rx="3.30928" ry="3.30928" transform="matrix(1 0 0 -1 226.456 162.889)" fill="#fff"/>
<ellipse cx="241.678" cy="5.36701" rx="3.30928" ry="3.30927" fill="#fff"/>
<ellipse cx="1.20001" cy="1.19089" rx="1.20001" ry="1.19089" transform="matrix(-0.867121 0.498098 0.501914 0.864918 257.437 74.1465)" fill="#fff"/>
<ellipse cx="1.20001" cy="1.19089" rx="1.20001" ry="1.19089" transform="matrix(0.86712 -0.498099 0.501914 0.864918 208.991 95.3826)" fill="#fff"/>
<ellipse cx="1.20001" cy="1.19089" rx="1.20001" ry="1.19089" transform="matrix(-0.867121 0.498098 0.501914 0.864918 249.392 70.8024)" fill="#fff"/>
<ellipse cx="1.20001" cy="1.19089" rx="1.20001" ry="1.19089" transform="matrix(0.86712 -0.498099 0.501914 0.864918 200.295 93.7858)" fill="#fff"/>
<ellipse cx="1.20001" cy="1.19089" rx="1.20001" ry="1.19089" transform="matrix(-0.86712 0.498099 0.501914 0.864918 250.024 61.3743)" fill="#fff"/>
<ellipse cx="1.20001" cy="1.19089" rx="1.20001" ry="1.19089" transform="matrix(0.86712 -0.498099 0.501914 0.864918 204.448 87.5545)" fill="#fff"/>
<ellipse cx="1.20001" cy="1.19089" rx="1.20001" ry="1.19089" transform="matrix(-0.86712 0.498099 0.501914 0.864918 242.17 63.1396)" fill="#fff"/>
<ellipse cx="1.20001" cy="1.19089" rx="1.20001" ry="1.19089" transform="matrix(-0.86712 0.498099 -0.501913 -0.864918 252.818 85.3144)" fill="#fff"/>
<ellipse cx="1.20001" cy="1.19089" rx="1.20001" ry="1.19089" transform="matrix(0.86712 -0.498099 0.501914 0.864918 197.408 81.1609)" fill="#fff"/>
<ellipse cx="1.20001" cy="1.19089" rx="1.20001" ry="1.19089" transform="matrix(0.867121 -0.498098 -0.501914 -0.864918 212.184 111.403)" fill="#fff"/>
<ellipse cx="1.20001" cy="1.19089" rx="1.20001" ry="1.19089" transform="matrix(-0.86712 0.498098 0.501914 0.864918 239.35 53.498)" fill="#fff"/>
<ellipse cx="1.20001" cy="1.19089" rx="1.20001" ry="1.19089" transform="matrix(-0.86712 0.498099 -0.501914 -0.864918 260.398 93.5952)" fill="#fff"/>
<ellipse cx="1.20001" cy="1.19089" rx="1.20001" ry="1.19089" transform="matrix(0.86712 -0.498099 0.501914 0.864918 205.344 75.2296)" fill="#fff"/>
<ellipse cx="1.20001" cy="1.19089" rx="1.20001" ry="1.19089" transform="matrix(0.86712 -0.498099 -0.501914 -0.864918 220.092 106.86)" fill="#fff"/>
<ellipse cx="1.20001" cy="1.19089" rx="1.20001" ry="1.19089" transform="matrix(-0.867121 0.498098 0.501914 0.864918 232.605 59.5692)" fill="#fff"/>
<ellipse cx="1.20001" cy="1.19089" rx="1.20001" ry="1.19089" transform="matrix(-0.86712 0.498099 -0.501914 -0.864918 248.615 96.2432)" fill="#fff"/>
<ellipse cx="1.20001" cy="1.19089" rx="1.20001" ry="1.19089" transform="matrix(0.86712 -0.498099 0.501914 0.864918 200.894 68.996)" fill="#fff"/>
<ellipse cx="1.20001" cy="1.19089" rx="1.20001" ry="1.19089" transform="matrix(0.867121 -0.498098 -0.501914 -0.864918 224.581 117.466)" fill="#fff"/>
<ellipse cx="1.20001" cy="1.19089" rx="1.20001" ry="1.19089" transform="matrix(-0.86712 0.498099 0.501914 0.864918 227.142 52.5448)" fill="#fff"/>
<ellipse cx="1.20001" cy="1.19089" rx="1.20001" ry="1.19089" transform="matrix(-0.86712 0.498099 -0.501914 -0.864918 252.622 104.104)" fill="#fff"/>
<ellipse cx="1.20001" cy="1.19089" rx="1.20001" ry="1.19089" transform="matrix(0.86712 -0.498098 0.501914 0.864918 211.276 66.3277)" fill="#fff"/>
<ellipse cx="1.20001" cy="1.19089" rx="1.20001" ry="1.19089" transform="matrix(0.867121 -0.498098 -0.501914 -0.864918 230.541 107.175)" fill="#fff"/>
<ellipse cx="1.20001" cy="1.19089" rx="1.20001" ry="1.19089" transform="matrix(-0.86712 0.498099 0.501914 0.864918 222.515 59.8723)" fill="#fff"/>
<ellipse cx="1.20001" cy="1.19089" rx="1.20001" ry="1.19089" transform="matrix(-0.86712 0.498099 -0.501914 -0.864918 242.527 102.487)" fill="#fff"/>
<ellipse cx="1.20001" cy="1.19089" rx="1.20001" ry="1.19089" transform="matrix(-0.86712 0.498099 0.501914 0.864918 215.488 59.2393)" fill="#fff"/>
<ellipse cx="1.20001" cy="1.19089" rx="1.20001" ry="1.19089" transform="matrix(-0.86712 0.498099 -0.501914 -0.864918 240.791 111.45)" fill="#fff"/>
</g>
</g>
<defs>
<filter id="filter0_f_1_480" x="0.658203" y="98.3014" width="175.031" height="170.358" filterUnits="userSpaceOnUse" color-interpolation-filters="sRGB">
<feFlood flood-opacity="0" result="BackgroundImageFix"/>
<feBlend mode="normal" in="SourceGraphic" in2="BackgroundImageFix" result="shape"/>
<feGaussianBlur stdDeviation="1" result="effect1_foregroundBlur_1_480"/>
</filter>
<filter id="filter1_f_1_480" x="86.7891" y="269.214" width="82.0986" height="82.767" filterUnits="userSpaceOnUse" color-interpolation-filters="sRGB">
<feFlood flood-opacity="0" result="BackgroundImageFix"/>
<feBlend mode="normal" in="SourceGraphic" in2="BackgroundImageFix" result="shape"/>
<feGaussianBlur stdDeviation="1" result="effect1_foregroundBlur_1_480"/>
</filter>
<filter id="filter2_f_1_480" x="176.14" y="49.4129" width="167.479" height="302.119" filterUnits="userSpaceOnUse" color-interpolation-filters="sRGB">
<feFlood flood-opacity="0" result="BackgroundImageFix"/>
<feBlend mode="normal" in="SourceGraphic" in2="BackgroundImageFix" result="shape"/>
<feGaussianBlur stdDeviation="1" result="effect1_foregroundBlur_1_480"/>
</filter>
<filter id="filter3_f_1_480" x="145.033" y="0.0577393" width="167.479" height="164.831" filterUnits="userSpaceOnUse" color-interpolation-filters="sRGB">
<feFlood flood-opacity="0" result="BackgroundImageFix"/>
<feBlend mode="normal" in="SourceGraphic" in2="BackgroundImageFix" result="shape"/>
<feGaussianBlur stdDeviation="1" result="effect1_foregroundBlur_1_480"/>
</filter>
</defs>
</svg>
