<svg width="97" height="96" viewBox="0 0 97 96" fill="none" xmlns="http://www.w3.org/2000/svg">
<g id="Group" filter="url(#filter0_i_1_178)">
<g id="Vector">
<path d="M26.1594 1.45325L72.7264 2.86653C85.2975 3.24805 95.2353 14.109 94.8409 27.1019L93.5085 71.0061C93.1141 83.999 82.536 94.2373 69.9649 93.8558L23.3979 92.4425C10.8268 92.061 0.889017 81.2 1.28334 68.2071L2.61581 24.3029C3.01013 11.3101 13.5882 1.07173 26.1594 1.45325ZM25.9323 8.93453C17.316 8.67303 10.1137 15.6798 9.84537 24.5224L8.51291 68.4266C8.24454 77.2691 15.0087 84.6998 23.625 84.9612L70.192 86.3745C78.8082 86.636 86.0104 79.6292 86.2787 70.7867L87.6112 26.8825C87.8796 18.04 81.1156 10.6093 72.4993 10.3478L25.9323 8.93453Z" fill="url(#paint0_linear_1_178)"/>
<path d="M26.1594 1.45325L72.7264 2.86653C85.2975 3.24805 95.2353 14.109 94.8409 27.1019L93.5085 71.0061C93.1141 83.999 82.536 94.2373 69.9649 93.8558L23.3979 92.4425C10.8268 92.061 0.889017 81.2 1.28334 68.2071L2.61581 24.3029C3.01013 11.3101 13.5882 1.07173 26.1594 1.45325ZM25.9323 8.93453C17.316 8.67303 10.1137 15.6798 9.84537 24.5224L8.51291 68.4266C8.24454 77.2691 15.0087 84.6998 23.625 84.9612L70.192 86.3745C78.8082 86.636 86.0104 79.6292 86.2787 70.7867L87.6112 26.8825C87.8796 18.04 81.1156 10.6093 72.4993 10.3478L25.9323 8.93453Z" stroke="white" style="mix-blend-mode:hard-light"/>
<path d="M26.1594 1.45325L72.7264 2.86653C85.2975 3.24805 95.2353 14.109 94.8409 27.1019L93.5085 71.0061C93.1141 83.999 82.536 94.2373 69.9649 93.8558L23.3979 92.4425C10.8268 92.061 0.889017 81.2 1.28334 68.2071L2.61581 24.3029C3.01013 11.3101 13.5882 1.07173 26.1594 1.45325ZM25.9323 8.93453C17.316 8.67303 10.1137 15.6798 9.84537 24.5224L8.51291 68.4266C8.24454 77.2691 15.0087 84.6998 23.625 84.9612L70.192 86.3745C78.8082 86.636 86.0104 79.6292 86.2787 70.7867L87.6112 26.8825C87.8796 18.04 81.1156 10.6093 72.4993 10.3478L25.9323 8.93453Z" stroke="#FFE7E7"/>
</g>
<g id="Vector_2">
<path d="M71.6482 47.3032C71.2325 61.0021 60.4109 71.7823 47.5938 71.3933C34.7767 71.0043 24.6288 59.5877 25.0445 45.8888C25.4603 32.1899 36.2818 21.4097 49.099 21.7987C61.9161 22.1877 72.064 33.6043 71.6482 47.3032ZM63.6209 47.0596C63.8912 38.1541 57.2891 30.6495 48.8381 30.393C40.3871 30.1365 33.342 37.2269 33.0717 46.1324C32.8014 55.0379 39.4036 62.5425 47.8546 62.799C56.3057 63.0554 63.3506 55.9651 63.6209 47.0596Z" fill="url(#paint1_linear_1_178)"/>
<path d="M71.6482 47.3032C71.2325 61.0021 60.4109 71.7823 47.5938 71.3933C34.7767 71.0043 24.6288 59.5877 25.0445 45.8888C25.4603 32.1899 36.2818 21.4097 49.099 21.7987C61.9161 22.1877 72.064 33.6043 71.6482 47.3032ZM63.6209 47.0596C63.8912 38.1541 57.2891 30.6495 48.8381 30.393C40.3871 30.1365 33.342 37.2269 33.0717 46.1324C32.8014 55.0379 39.4036 62.5425 47.8546 62.799C56.3057 63.0554 63.3506 55.9651 63.6209 47.0596Z" stroke="white" style="mix-blend-mode:hard-light"/>
<path d="M71.6482 47.3032C71.2325 61.0021 60.4109 71.7823 47.5938 71.3933C34.7767 71.0043 24.6288 59.5877 25.0445 45.8888C25.4603 32.1899 36.2818 21.4097 49.099 21.7987C61.9161 22.1877 72.064 33.6043 71.6482 47.3032ZM63.6209 47.0596C63.8912 38.1541 57.2891 30.6495 48.8381 30.393C40.3871 30.1365 33.342 37.2269 33.0717 46.1324C32.8014 55.0379 39.4036 62.5425 47.8546 62.799C56.3057 63.0554 63.3506 55.9651 63.6209 47.0596Z" stroke="#FFE7E7"/>
</g>
<g id="Vector_3">
<path d="M80.3068 21.4045C80.228 24.0031 77.8924 26.0996 75.0385 26.013C72.1787 25.9262 69.9804 23.6924 70.0593 21.0935C70.1381 18.4946 72.4679 16.3983 75.3276 16.4851C78.1874 16.5719 80.3857 18.8056 80.3068 21.4045Z" fill="url(#paint2_linear_1_178)"/>
<path d="M80.3068 21.4045C80.228 24.0031 77.8924 26.0996 75.0385 26.013C72.1787 25.9262 69.9804 23.6924 70.0593 21.0935C70.1381 18.4946 72.4679 16.3983 75.3276 16.4851C78.1874 16.5719 80.3857 18.8056 80.3068 21.4045Z" stroke="white" style="mix-blend-mode:hard-light"/>
<path d="M80.3068 21.4045C80.228 24.0031 77.8924 26.0996 75.0385 26.013C72.1787 25.9262 69.9804 23.6924 70.0593 21.0935C70.1381 18.4946 72.4679 16.3983 75.3276 16.4851C78.1874 16.5719 80.3857 18.8056 80.3068 21.4045Z" stroke="#FFE7E7"/>
</g>
</g>
<defs>
<filter id="filter0_i_1_178" x="0.771973" y="0.942917" width="94.5801" height="97.4232" filterUnits="userSpaceOnUse" color-interpolation-filters="sRGB">
<feFlood flood-opacity="0" result="BackgroundImageFix"/>
<feBlend mode="normal" in="SourceGraphic" in2="BackgroundImageFix" result="shape"/>
<feColorMatrix in="SourceAlpha" type="matrix" values="0 0 0 0 0 0 0 0 0 0 0 0 0 0 0 0 0 0 127 0" result="hardAlpha"/>
<feOffset dy="4"/>
<feGaussianBlur stdDeviation="2"/>
<feComposite in2="hardAlpha" operator="arithmetic" k2="-1" k3="1"/>
<feColorMatrix type="matrix" values="0 0 0 0 0 0 0 0 0 0 0 0 0 0 0 0 0 0 0.25 0"/>
<feBlend mode="normal" in2="shape" result="effect1_innerShadow_1_178"/>
</filter>
<linearGradient id="paint0_linear_1_178" x1="7.53701" y1="85.4876" x2="92.5624" y2="10.7788" gradientUnits="userSpaceOnUse">
<stop stop-color="#FAAD4F"/>
<stop offset="0.35" stop-color="#DD2A7B"/>
<stop offset="0.62" stop-color="#9537B0"/>
<stop offset="1" stop-color="#515BD4"/>
</linearGradient>
<linearGradient id="paint1_linear_1_178" x1="3.84575" y1="89.4315" x2="99.7028" y2="7.77818" gradientUnits="userSpaceOnUse">
<stop stop-color="#FAAD4F"/>
<stop offset="0.35" stop-color="#DD2A7B"/>
<stop offset="0.62" stop-color="#9537B0"/>
<stop offset="1" stop-color="#515BD4"/>
</linearGradient>
<linearGradient id="paint2_linear_1_178" x1="12.2908" y1="74.544" x2="86.8975" y2="2.34518" gradientUnits="userSpaceOnUse">
<stop stop-color="#FAAD4F"/>
<stop offset="0.35" stop-color="#DD2A7B"/>
<stop offset="0.62" stop-color="#9537B0"/>
<stop offset="1" stop-color="#515BD4"/>
</linearGradient>
</defs>
</svg>
