<svg width="97" height="96" viewBox="0 0 97 96" fill="none" xmlns="http://www.w3.org/2000/svg">
<g id="Group" filter="url(#filter0_i_5_230)">
<g id="Vector">
<path d="M26.1594 1.45327L72.7264 2.86654C85.2975 3.24807 95.2353 14.109 94.8409 27.1019L93.5085 71.0061C93.1141 83.999 82.536 94.2373 69.9649 93.8558L23.3979 92.4425C10.8268 92.061 0.889017 81.2 1.28334 68.2072L2.61581 24.303C3.01013 11.3101 13.5882 1.07174 26.1594 1.45327ZM25.9323 8.93454C17.316 8.67304 10.1137 15.6798 9.84537 24.5224L8.51291 68.4266C8.24454 77.2691 15.0087 84.6998 23.625 84.9613L70.192 86.3745C78.8082 86.636 86.0104 79.6292 86.2787 70.7867L87.6112 26.8825C87.8796 18.04 81.1156 10.6093 72.4993 10.3478L25.9323 8.93454Z" fill="url(#paint0_linear_5_230)"/>
<path d="M26.1594 1.45327L72.7264 2.86654C85.2975 3.24807 95.2353 14.109 94.8409 27.1019L93.5085 71.0061C93.1141 83.999 82.536 94.2373 69.9649 93.8558L23.3979 92.4425C10.8268 92.061 0.889017 81.2 1.28334 68.2072L2.61581 24.303C3.01013 11.3101 13.5882 1.07174 26.1594 1.45327ZM25.9323 8.93454C17.316 8.67304 10.1137 15.6798 9.84537 24.5224L8.51291 68.4266C8.24454 77.2691 15.0087 84.6998 23.625 84.9613L70.192 86.3745C78.8082 86.636 86.0104 79.6292 86.2787 70.7867L87.6112 26.8825C87.8796 18.04 81.1156 10.6093 72.4993 10.3478L25.9323 8.93454Z" stroke="white" style="mix-blend-mode:hard-light"/>
<path d="M26.1594 1.45327L72.7264 2.86654C85.2975 3.24807 95.2353 14.109 94.8409 27.1019L93.5085 71.0061C93.1141 83.999 82.536 94.2373 69.9649 93.8558L23.3979 92.4425C10.8268 92.061 0.889017 81.2 1.28334 68.2072L2.61581 24.303C3.01013 11.3101 13.5882 1.07174 26.1594 1.45327ZM25.9323 8.93454C17.316 8.67304 10.1137 15.6798 9.84537 24.5224L8.51291 68.4266C8.24454 77.2691 15.0087 84.6998 23.625 84.9613L70.192 86.3745C78.8082 86.636 86.0104 79.6292 86.2787 70.7867L87.6112 26.8825C87.8796 18.04 81.1156 10.6093 72.4993 10.3478L25.9323 8.93454Z" stroke="#FFE7E7"/>
</g>
<g id="Vector_2">
<path d="M71.6481 47.3032C71.2323 61.0022 60.4108 71.7823 47.5937 71.3933C34.7765 71.0044 24.6286 59.5878 25.0444 45.8889C25.4602 32.1899 36.2817 21.4097 49.0988 21.7987C61.9159 22.1877 72.0638 33.6043 71.6481 47.3032ZM63.6208 47.0596C63.891 38.1541 57.289 30.6496 48.838 30.3931C40.387 30.1366 33.3418 37.227 33.0716 46.1325C32.8013 55.038 39.4035 62.5425 47.8545 62.799C56.3055 63.0555 63.3505 55.9651 63.6208 47.0596Z" fill="url(#paint1_linear_5_230)"/>
<path d="M71.6481 47.3032C71.2323 61.0022 60.4108 71.7823 47.5937 71.3933C34.7765 71.0044 24.6286 59.5878 25.0444 45.8889C25.4602 32.1899 36.2817 21.4097 49.0988 21.7987C61.9159 22.1877 72.0638 33.6043 71.6481 47.3032ZM63.6208 47.0596C63.891 38.1541 57.289 30.6496 48.838 30.3931C40.387 30.1366 33.3418 37.227 33.0716 46.1325C32.8013 55.038 39.4035 62.5425 47.8545 62.799C56.3055 63.0555 63.3505 55.9651 63.6208 47.0596Z" stroke="white" style="mix-blend-mode:hard-light"/>
<path d="M71.6481 47.3032C71.2323 61.0022 60.4108 71.7823 47.5937 71.3933C34.7765 71.0044 24.6286 59.5878 25.0444 45.8889C25.4602 32.1899 36.2817 21.4097 49.0988 21.7987C61.9159 22.1877 72.0638 33.6043 71.6481 47.3032ZM63.6208 47.0596C63.891 38.1541 57.289 30.6496 48.838 30.3931C40.387 30.1366 33.3418 37.227 33.0716 46.1325C32.8013 55.038 39.4035 62.5425 47.8545 62.799C56.3055 63.0555 63.3505 55.9651 63.6208 47.0596Z" stroke="#FFE7E7"/>
</g>
<g id="Vector_3">
<path d="M80.3067 21.4046C80.2278 24.0031 77.8923 26.0996 75.0383 26.013C72.1786 25.9262 69.9803 23.6925 70.0591 21.0935C70.138 18.4946 72.4677 16.3983 75.3275 16.4851C78.1873 16.5719 80.3856 18.8056 80.3067 21.4046Z" fill="url(#paint2_linear_5_230)"/>
<path d="M80.3067 21.4046C80.2278 24.0031 77.8923 26.0996 75.0383 26.013C72.1786 25.9262 69.9803 23.6925 70.0591 21.0935C70.138 18.4946 72.4677 16.3983 75.3275 16.4851C78.1873 16.5719 80.3856 18.8056 80.3067 21.4046Z" stroke="white" style="mix-blend-mode:hard-light"/>
<path d="M80.3067 21.4046C80.2278 24.0031 77.8923 26.0996 75.0383 26.013C72.1786 25.9262 69.9803 23.6925 70.0591 21.0935C70.138 18.4946 72.4677 16.3983 75.3275 16.4851C78.1873 16.5719 80.3856 18.8056 80.3067 21.4046Z" stroke="#FFE7E7"/>
</g>
</g>
<defs>
<filter id="filter0_i_5_230" x="0.771973" y="0.942932" width="94.5803" height="97.4232" filterUnits="userSpaceOnUse" color-interpolation-filters="sRGB">
<feFlood flood-opacity="0" result="BackgroundImageFix"/>
<feBlend mode="normal" in="SourceGraphic" in2="BackgroundImageFix" result="shape"/>
<feColorMatrix in="SourceAlpha" type="matrix" values="0 0 0 0 0 0 0 0 0 0 0 0 0 0 0 0 0 0 127 0" result="hardAlpha"/>
<feOffset dy="4"/>
<feGaussianBlur stdDeviation="2"/>
<feComposite in2="hardAlpha" operator="arithmetic" k2="-1" k3="1"/>
<feColorMatrix type="matrix" values="0 0 0 0 0 0 0 0 0 0 0 0 0 0 0 0 0 0 0.25 0"/>
<feBlend mode="normal" in2="shape" result="effect1_innerShadow_5_230"/>
</filter>
<linearGradient id="paint0_linear_5_230" x1="7.53701" y1="85.4876" x2="92.5624" y2="10.7788" gradientUnits="userSpaceOnUse">
<stop stop-color="#FAAD4F"/>
<stop offset="0.35" stop-color="#DD2A7B"/>
<stop offset="0.62" stop-color="#9537B0"/>
<stop offset="1" stop-color="#515BD4"/>
</linearGradient>
<linearGradient id="paint1_linear_5_230" x1="3.84563" y1="89.4316" x2="99.7027" y2="7.77822" gradientUnits="userSpaceOnUse">
<stop stop-color="#FAAD4F"/>
<stop offset="0.35" stop-color="#DD2A7B"/>
<stop offset="0.62" stop-color="#9537B0"/>
<stop offset="1" stop-color="#515BD4"/>
</linearGradient>
<linearGradient id="paint2_linear_5_230" x1="12.2907" y1="74.544" x2="86.8973" y2="2.34519" gradientUnits="userSpaceOnUse">
<stop stop-color="#FAAD4F"/>
<stop offset="0.35" stop-color="#DD2A7B"/>
<stop offset="0.62" stop-color="#9537B0"/>
<stop offset="1" stop-color="#515BD4"/>
</linearGradient>
</defs>
</svg>
